# Blender 4.4.1
# www.blender.org
mtllib roll.mtl
o Cube
v 0.165188 0.297794 -0.297794
v 0.165188 -0.297794 -0.297794
v 0.165188 0.297794 0.297794
v 0.165188 -0.297794 0.297794
v -0.165188 0.297794 -0.297794
v -0.165188 -0.297794 -0.297794
v -0.165188 0.297794 0.297794
v -0.165188 -0.297794 0.297794
v -0.189283 -0.341232 -0.176681
v -0.201386 -0.363051 -0.000000
v -0.189283 -0.341232 0.176681
v 0.098006 -0.341232 -0.341232
v 0.000000 -0.363051 -0.363051
v -0.098006 -0.341232 -0.341232
v 0.189283 0.176681 -0.341232
v 0.201386 0.000000 -0.363051
v 0.189283 -0.176681 -0.341232
v -0.189283 -0.176681 0.341232
v -0.201386 -0.000000 0.363051
v -0.189283 0.176681 0.341232
v 0.189283 0.176681 0.341232
v 0.201386 0.000000 0.363051
v 0.189283 -0.176681 0.341232
v -0.189283 0.176681 -0.341232
v -0.201386 -0.000000 -0.363051
v -0.189283 -0.176681 -0.341232
v 0.098006 0.341232 0.341232
v -0.000000 0.363051 0.363051
v -0.098006 0.341232 0.341232
v 0.189283 0.341232 -0.176681
v 0.201386 0.363051 0.000000
v 0.189283 0.341232 0.176681
v -0.098006 -0.341232 0.341232
v -0.000000 -0.363051 0.363051
v 0.098006 -0.341232 0.341232
v -0.189283 0.341232 0.176681
v -0.201386 0.363051 -0.000000
v -0.189283 0.341232 -0.176681
v -0.098006 0.341232 -0.341232
v 0.000000 0.363051 -0.363051
v 0.098006 0.341232 -0.341232
v 0.189283 -0.341232 0.176681
v 0.201386 -0.363051 0.000000
v 0.189283 -0.341232 -0.176681
v 0.104451 0.434178 -0.188299
v 0.000000 0.465648 -0.198415
v -0.104451 0.434178 -0.188299
v 0.110062 0.465648 0.000000
v -0.000000 0.500000 -0.000000
v -0.110062 0.465648 -0.000000
v 0.104451 0.434178 0.188299
v -0.000000 0.465648 0.198415
v -0.104451 0.434178 0.188299
v 0.104451 -0.188299 0.434178
v 0.110062 -0.000000 0.465648
v 0.104451 0.188299 0.434178
v -0.000000 -0.198415 0.465648
v 0.000000 0.000000 0.500000
v 0.000000 0.198415 0.465648
v -0.104451 -0.188299 0.434178
v -0.110062 0.000000 0.465648
v -0.104451 0.188299 0.434178
v -0.240841 -0.188299 0.188299
v -0.258297 -0.000000 0.198415
v -0.240841 0.188299 0.188299
v -0.258297 -0.198415 -0.000000
v -0.277353 0.000000 -0.000000
v -0.258297 0.198415 0.000000
v -0.240841 -0.188299 -0.188299
v -0.258297 0.000000 -0.198415
v -0.240841 0.188299 -0.188299
v -0.104451 -0.434178 -0.188299
v -0.000000 -0.465648 -0.198415
v 0.104451 -0.434178 -0.188299
v -0.110062 -0.465648 0.000000
v 0.000000 -0.500000 0.000000
v 0.110062 -0.465648 -0.000000
v -0.104451 -0.434178 0.188299
v 0.000000 -0.465648 0.198415
v 0.104451 -0.434178 0.188299
v 0.240841 -0.188299 -0.188299
v 0.258297 -0.000000 -0.198415
v 0.240841 0.188299 -0.188299
v 0.258297 -0.198415 0.000000
v 0.277353 0.000000 -0.000000
v 0.258297 0.198415 -0.000000
v 0.240841 -0.188299 0.188299
v 0.258297 0.000000 0.198415
v 0.240841 0.188299 0.188299
v -0.104451 -0.188299 -0.434178
v -0.110062 -0.000000 -0.465648
v -0.104451 0.188299 -0.434178
v 0.000000 -0.198415 -0.465648
v 0.000000 0.000000 -0.500000
v -0.000000 0.198415 -0.465648
v 0.104451 -0.188299 -0.434178
v 0.110062 0.000000 -0.465648
v 0.104451 0.188299 -0.434178
vn 0.2938 0.9413 -0.1661
vn -0.2991 0.9402 -0.1628
vn 0.2938 0.9413 0.1661
vn -0.2991 0.9402 0.1628
vn 0.7114 0.6045 -0.3584
vn 0.2934 0.8114 -0.5055
vn -0.2932 0.8114 -0.5056
vn -0.6668 0.6240 -0.4073
vn -0.7404 0.6590 -0.1322
vn -0.7404 0.6590 0.1322
vn -0.6668 0.6240 0.4073
vn -0.2932 0.8114 0.5056
vn 0.2934 0.8114 0.5055
vn 0.7114 0.6045 0.3584
vn 0.7403 0.6592 0.1321
vn 0.7403 0.6592 -0.1321
vn 0.2991 -0.1628 0.9402
vn 0.2938 0.1661 0.9413
vn -0.2991 -0.1628 0.9402
vn -0.2938 0.1661 0.9413
vn 0.6668 -0.4073 0.6240
vn 0.7403 -0.1321 0.6592
vn 0.7404 0.1322 0.6590
vn 0.7114 0.3584 0.6045
vn 0.2934 0.5055 0.8114
vn -0.2934 0.5055 0.8114
vn -0.7114 0.3584 0.6045
vn -0.7404 0.1322 0.6590
vn -0.7403 -0.1321 0.6592
vn -0.6668 -0.4073 0.6240
vn -0.2932 -0.5056 0.8114
vn 0.2932 -0.5056 0.8114
vn -0.9907 -0.0951 0.0970
vn -0.9907 0.0970 0.0951
vn -0.9907 -0.0951 -0.0970
vn -0.9907 0.0970 -0.0951
vn -0.8983 -0.3253 0.2954
vn -0.9400 -0.1046 0.3248
vn -0.9399 0.1045 0.3249
vn -0.8983 0.2954 0.3253
vn -0.9400 0.3248 0.1046
vn -0.9400 0.3248 -0.1046
vn -0.8983 0.2954 -0.3253
vn -0.9399 0.1045 -0.3249
vn -0.9400 -0.1046 -0.3248
vn -0.8983 -0.3253 -0.2954
vn -0.9399 -0.3249 -0.1045
vn -0.9399 -0.3249 0.1045
vn -0.2938 -0.9413 -0.1661
vn 0.2991 -0.9402 -0.1628
vn -0.2938 -0.9413 0.1661
vn 0.2991 -0.9402 0.1628
vn -0.7114 -0.6045 -0.3584
vn -0.2934 -0.8114 -0.5055
vn 0.2932 -0.8114 -0.5056
vn 0.6668 -0.6240 -0.4073
vn 0.7404 -0.6590 -0.1322
vn 0.7404 -0.6590 0.1322
vn 0.6668 -0.6240 0.4073
vn 0.2932 -0.8114 0.5056
vn -0.2934 -0.8114 0.5055
vn -0.7114 -0.6045 0.3584
vn -0.7403 -0.6592 0.1321
vn -0.7403 -0.6592 -0.1321
vn 0.9907 -0.0951 -0.0970
vn 0.9907 0.0970 -0.0951
vn 0.9907 -0.0951 0.0970
vn 0.9907 0.0970 0.0951
vn 0.8983 -0.3253 -0.2954
vn 0.9400 -0.1046 -0.3248
vn 0.9399 0.1045 -0.3249
vn 0.8983 0.2954 -0.3253
vn 0.9400 0.3248 -0.1046
vn 0.9400 0.3248 0.1046
vn 0.8983 0.2954 0.3253
vn 0.9399 0.1045 0.3249
vn 0.9400 -0.1046 0.3248
vn 0.8983 -0.3253 0.2954
vn 0.9399 -0.3249 0.1045
vn 0.9399 -0.3249 -0.1045
vn -0.2991 -0.1628 -0.9402
vn -0.2938 0.1661 -0.9413
vn 0.2991 -0.1628 -0.9402
vn 0.2938 0.1661 -0.9413
vn -0.6668 -0.4073 -0.6240
vn -0.7403 -0.1321 -0.6592
vn -0.7404 0.1322 -0.6590
vn -0.7114 0.3584 -0.6045
vn -0.2934 0.5055 -0.8114
vn 0.2934 0.5055 -0.8114
vn 0.7114 0.3584 -0.6045
vn 0.7404 0.1322 -0.6590
vn 0.7403 -0.1321 -0.6592
vn 0.6668 -0.4073 -0.6240
vn 0.2932 -0.5056 -0.8114
vn -0.2932 -0.5056 -0.8114
vn 0.2991 0.9402 -0.1628
vn -0.2938 0.9413 -0.1661
vn 0.2991 0.9402 0.1628
vn -0.2938 0.9413 0.1661
vn 0.6668 0.6240 -0.4073
vn 0.2932 0.8114 -0.5056
vn -0.2934 0.8114 -0.5055
vn -0.7114 0.6045 -0.3584
vn -0.7403 0.6592 -0.1321
vn -0.7403 0.6592 0.1321
vn -0.7114 0.6045 0.3584
vn -0.2934 0.8114 0.5055
vn 0.2932 0.8114 0.5056
vn 0.6668 0.6240 0.4073
vn 0.7404 0.6590 0.1322
vn 0.7404 0.6590 -0.1322
vn 0.2938 -0.1661 0.9413
vn 0.2991 0.1628 0.9402
vn -0.2938 -0.1661 0.9413
vn -0.2991 0.1628 0.9402
vn 0.7114 -0.3584 0.6045
vn 0.7404 -0.1322 0.6590
vn 0.7403 0.1321 0.6592
vn 0.6668 0.4073 0.6240
vn 0.2932 0.5056 0.8114
vn -0.2932 0.5056 0.8114
vn -0.6668 0.4073 0.6240
vn -0.7403 0.1321 0.6592
vn -0.7404 -0.1322 0.6590
vn -0.7114 -0.3584 0.6045
vn -0.2934 -0.5055 0.8114
vn 0.2934 -0.5055 0.8114
vn -0.9907 -0.0970 0.0951
vn -0.9907 0.0951 0.0970
vn -0.9907 -0.0970 -0.0951
vn -0.9907 0.0951 -0.0970
vn -0.8983 -0.2954 0.3253
vn -0.9399 -0.1045 0.3249
vn -0.9400 0.1046 0.3248
vn -0.8983 0.3253 0.2954
vn -0.9399 0.3249 0.1045
vn -0.9399 0.3249 -0.1045
vn -0.8983 0.3253 -0.2954
vn -0.9400 0.1046 -0.3248
vn -0.9399 -0.1045 -0.3249
vn -0.8983 -0.2954 -0.3253
vn -0.9400 -0.3248 -0.1046
vn -0.9400 -0.3248 0.1046
vn -0.2991 -0.9402 -0.1628
vn 0.2938 -0.9413 -0.1661
vn -0.2991 -0.9402 0.1628
vn 0.2938 -0.9413 0.1661
vn -0.6668 -0.6240 -0.4073
vn -0.2932 -0.8114 -0.5056
vn 0.2934 -0.8114 -0.5055
vn 0.7114 -0.6045 -0.3584
vn 0.7403 -0.6592 -0.1321
vn 0.7403 -0.6592 0.1321
vn 0.7114 -0.6045 0.3584
vn 0.2934 -0.8114 0.5055
vn -0.2932 -0.8114 0.5056
vn -0.6668 -0.6240 0.4073
vn -0.7404 -0.6590 0.1322
vn -0.7404 -0.6590 -0.1322
vn 0.9907 -0.0970 -0.0951
vn 0.9907 0.0951 -0.0970
vn 0.9907 -0.0970 0.0951
vn 0.9907 0.0951 0.0970
vn 0.8983 -0.2954 -0.3253
vn 0.9399 -0.1045 -0.3249
vn 0.9400 0.1046 -0.3248
vn 0.8983 0.3253 -0.2954
vn 0.9399 0.3249 -0.1045
vn 0.9399 0.3249 0.1045
vn 0.8983 0.3253 0.2954
vn 0.9400 0.1046 0.3248
vn 0.9399 -0.1045 0.3249
vn 0.8983 -0.2954 0.3253
vn 0.9400 -0.3248 0.1046
vn 0.9400 -0.3248 -0.1046
vn -0.2938 -0.1661 -0.9413
vn -0.2991 0.1628 -0.9402
vn 0.2938 -0.1661 -0.9413
vn 0.2991 0.1628 -0.9402
vn -0.7114 -0.3584 -0.6045
vn -0.7404 -0.1322 -0.6590
vn -0.7403 0.1321 -0.6592
vn -0.6668 0.4073 -0.6240
vn -0.2932 0.5056 -0.8114
vn 0.2932 0.5056 -0.8114
vn 0.6668 0.4073 -0.6240
vn 0.7403 0.1321 -0.6592
vn 0.7404 -0.1322 -0.6590
vn 0.7114 -0.3584 -0.6045
vn 0.2934 -0.5055 -0.8114
vn -0.2934 -0.5055 -0.8114
vt 0.562489 0.562489
vt 0.624978 0.624978
vt 0.562489 0.624978
vt 0.687467 0.562489
vt 0.624978 0.562489
vt 0.562489 0.687468
vt 0.687467 0.687468
vt 0.624978 0.687468
vt 0.500000 0.500000
vt 0.500000 0.562489
vt 0.562489 0.500000
vt 0.687468 0.500000
vt 0.624978 0.500000
vt 0.749957 0.500000
vt 0.749957 0.624978
vt 0.687467 0.624978
vt 0.749957 0.749957
vt 0.687468 0.749957
vt 0.624978 0.749957
vt 0.562489 0.749957
vt 0.500000 0.749957
vt 0.500000 0.687468
vt 0.500000 0.624978
vt 0.312532 0.812446
vt 0.375022 0.874935
vt 0.312532 0.874935
vt 0.437511 0.812446
vt 0.375022 0.812446
vt 0.312532 0.937424
vt 0.437511 0.937424
vt 0.375022 0.937424
vt 0.250043 0.749957
vt 0.250043 0.812446
vt 0.375022 0.749957
vt 0.312532 0.749957
vt 0.437511 0.749957
vt 0.500000 0.812446
vt 0.437511 0.874935
vt 0.500000 0.937424
vt 0.500000 0.999913
vt 0.437511 0.999913
vt 0.375022 0.999913
vt 0.312532 0.999913
vt 0.250043 0.999913
vt 0.250043 0.937424
vt 0.250043 0.874935
vt 0.312532 0.062576
vt 0.375022 0.125065
vt 0.312532 0.125065
vt 0.437511 0.062576
vt 0.375022 0.062576
vt 0.312532 0.187554
vt 0.437511 0.187554
vt 0.375022 0.187554
vt 0.250043 0.000087
vt 0.250043 0.062576
vt 0.312532 0.000087
vt 0.437511 0.000087
vt 0.375022 0.000087
vt 0.500000 0.000087
vt 0.500000 0.062576
vt 0.437511 0.125065
vt 0.500000 0.187554
vt 0.500000 0.250043
vt 0.437511 0.250043
vt 0.375022 0.250043
vt 0.312532 0.250043
vt 0.250043 0.250043
vt 0.250043 0.187554
vt 0.250043 0.125065
vt 0.062576 0.562489
vt 0.125065 0.624978
vt 0.062576 0.624978
vt 0.187554 0.562489
vt 0.125065 0.562489
vt 0.062576 0.687468
vt 0.187554 0.687468
vt 0.125065 0.687468
vt 0.000087 0.500000
vt 0.000087 0.562489
vt 0.062576 0.500000
vt 0.187554 0.500000
vt 0.125065 0.500000
vt 0.250043 0.500000
vt 0.250043 0.624978
vt 0.187554 0.624978
vt 0.187554 0.749957
vt 0.125065 0.749957
vt 0.062576 0.749957
vt 0.000087 0.749957
vt 0.000087 0.687468
vt 0.000087 0.624978
vt 0.312532 0.562489
vt 0.375022 0.624978
vt 0.312532 0.624978
vt 0.437511 0.562489
vt 0.375022 0.562489
vt 0.312532 0.687468
vt 0.437511 0.687468
vt 0.375022 0.687468
vt 0.250043 0.562489
vt 0.312532 0.500000
vt 0.437511 0.500000
vt 0.375022 0.500000
vt 0.437511 0.624978
vt 0.250043 0.687468
vt 0.312532 0.312532
vt 0.375022 0.375022
vt 0.312532 0.375022
vt 0.437511 0.312532
vt 0.375022 0.312532
vt 0.312532 0.437511
vt 0.437511 0.437511
vt 0.375022 0.437511
vt 0.250043 0.312532
vt 0.500000 0.312532
vt 0.437511 0.375022
vt 0.500000 0.437511
vt 0.250043 0.437511
vt 0.250043 0.375022
vt 0.749957 0.562489
vt 0.749957 0.687468
vt 0.500000 0.874935
vt 0.500000 0.125065
vt 0.500000 0.375022
s 0
usemtl Material
f 45/1/1 49/2/1 48/3/1
f 47/4/2 49/2/2 46/5/2
f 49/2/3 51/6/3 48/3/3
f 49/2/4 53/7/4 52/8/4
f 1/9/5 45/1/5 30/10/5
f 41/11/6 46/5/6 45/1/6
f 39/12/7 46/5/7 40/13/7
f 5/14/8 47/4/8 39/12/8
f 47/4/9 37/15/9 50/16/9
f 37/15/10 53/7/10 50/16/10
f 53/7/11 7/17/11 29/18/11
f 52/8/12 29/18/12 28/19/12
f 52/8/13 27/20/13 51/6/13
f 51/6/14 3/21/14 32/22/14
f 31/23/15 51/6/15 32/22/15
f 45/1/16 31/23/16 30/10/16
f 54/24/17 58/25/17 57/26/17
f 56/27/18 58/25/18 55/28/18
f 58/25/19 60/29/19 57/26/19
f 58/25/20 62/30/20 61/31/20
f 4/32/21 54/24/21 35/33/21
f 22/34/22 54/24/22 23/35/22
f 22/34/23 56/27/23 55/28/23
f 3/21/24 56/27/24 21/36/24
f 27/37/25 59/38/25 56/27/25
f 59/38/26 29/39/26 62/30/26
f 62/30/27 7/40/27 20/41/27
f 62/30/28 19/42/28 61/31/28
f 60/29/29 19/42/29 18/43/29
f 60/29/30 8/44/30 33/45/30
f 57/26/31 33/45/31 34/46/31
f 35/33/32 57/26/32 34/46/32
f 63/47/33 67/48/33 66/49/33
f 65/50/34 67/48/34 64/51/34
f 67/48/35 69/52/35 66/49/35
f 67/48/36 71/53/36 70/54/36
f 8/55/37 63/47/37 11/56/37
f 18/57/38 64/51/38 63/47/38
f 20/58/39 64/51/39 19/59/39
f 7/60/40 65/50/40 20/58/40
f 36/61/41 68/62/41 65/50/41
f 68/62/42 38/63/42 71/53/42
f 71/53/43 5/64/43 24/65/43
f 70/54/44 24/65/44 25/66/44
f 70/54/45 26/67/45 69/52/45
f 69/52/46 6/68/46 9/69/46
f 66/49/47 9/69/47 10/70/47
f 11/56/48 66/49/48 10/70/48
f 72/71/49 76/72/49 75/73/49
f 74/74/50 76/72/50 73/75/50
f 76/72/51 78/76/51 75/73/51
f 76/72/52 80/77/52 79/78/52
f 6/79/53 72/71/53 9/80/53
f 14/81/54 73/75/54 72/71/54
f 12/82/55 73/75/55 13/83/55
f 2/84/56 74/74/56 12/82/56
f 74/74/57 43/85/57 77/86/57
f 43/85/58 80/77/58 77/86/58
f 80/77/59 4/32/59 35/87/59
f 79/78/60 35/87/60 34/88/60
f 79/78/61 33/89/61 78/76/61
f 78/76/62 8/90/62 11/91/62
f 10/92/63 78/76/63 11/91/63
f 72/71/64 10/92/64 9/80/64
f 81/93/65 85/94/65 84/95/65
f 83/96/66 85/94/66 82/97/66
f 85/94/67 87/98/67 84/95/67
f 85/94/68 89/99/68 88/100/68
f 2/84/69 81/93/69 44/101/69
f 17/102/70 82/97/70 81/93/70
f 15/103/71 82/97/71 16/104/71
f 1/9/72 83/96/72 15/103/72
f 30/10/73 86/105/73 83/96/73
f 86/105/74 32/22/74 89/99/74
f 89/99/75 3/21/75 21/36/75
f 88/100/76 21/36/76 22/34/76
f 88/100/77 23/35/77 87/98/77
f 87/98/78 4/32/78 42/106/78
f 84/95/79 42/106/79 43/85/79
f 44/101/80 84/95/80 43/85/80
f 90/107/81 94/108/81 93/109/81
f 92/110/82 94/108/82 91/111/82
f 94/108/83 96/112/83 93/109/83
f 94/108/84 98/113/84 97/114/84
f 6/68/85 90/107/85 14/115/85
f 25/66/86 90/107/86 26/67/86
f 25/66/87 92/110/87 91/111/87
f 5/64/88 92/110/88 24/65/88
f 39/116/89 95/117/89 92/110/89
f 95/117/90 41/118/90 98/113/90
f 98/113/91 1/9/91 15/103/91
f 98/113/92 16/104/92 97/114/92
f 96/112/93 16/104/93 17/102/93
f 96/112/94 2/84/94 12/119/94
f 93/109/95 12/119/95 13/120/95
f 14/115/96 93/109/96 13/120/96
f 45/1/97 46/5/97 49/2/97
f 47/4/98 50/16/98 49/2/98
f 49/2/99 52/8/99 51/6/99
f 49/2/100 50/16/100 53/7/100
f 1/9/101 41/11/101 45/1/101
f 41/11/102 40/13/102 46/5/102
f 39/12/103 47/4/103 46/5/103
f 5/14/104 38/121/104 47/4/104
f 47/4/105 38/121/105 37/15/105
f 37/15/106 36/122/106 53/7/106
f 53/7/107 36/122/107 7/17/107
f 52/8/108 53/7/108 29/18/108
f 52/8/109 28/19/109 27/20/109
f 51/6/110 27/20/110 3/21/110
f 31/23/111 48/3/111 51/6/111
f 45/1/112 48/3/112 31/23/112
f 54/24/113 55/28/113 58/25/113
f 56/27/114 59/38/114 58/25/114
f 58/25/115 61/31/115 60/29/115
f 58/25/116 59/38/116 62/30/116
f 4/32/117 23/35/117 54/24/117
f 22/34/118 55/28/118 54/24/118
f 22/34/119 21/36/119 56/27/119
f 3/21/120 27/37/120 56/27/120
f 27/37/121 28/123/121 59/38/121
f 59/38/122 28/123/122 29/39/122
f 62/30/123 29/39/123 7/40/123
f 62/30/124 20/41/124 19/42/124
f 60/29/125 61/31/125 19/42/125
f 60/29/126 18/43/126 8/44/126
f 57/26/127 60/29/127 33/45/127
f 35/33/128 54/24/128 57/26/128
f 63/47/129 64/51/129 67/48/129
f 65/50/130 68/62/130 67/48/130
f 67/48/131 70/54/131 69/52/131
f 67/48/132 68/62/132 71/53/132
f 8/55/133 18/57/133 63/47/133
f 18/57/134 19/59/134 64/51/134
f 20/58/135 65/50/135 64/51/135
f 7/60/136 36/61/136 65/50/136
f 36/61/137 37/124/137 68/62/137
f 68/62/138 37/124/138 38/63/138
f 71/53/139 38/63/139 5/64/139
f 70/54/140 71/53/140 24/65/140
f 70/54/141 25/66/141 26/67/141
f 69/52/142 26/67/142 6/68/142
f 66/49/143 69/52/143 9/69/143
f 11/56/144 63/47/144 66/49/144
f 72/71/145 73/75/145 76/72/145
f 74/74/146 77/86/146 76/72/146
f 76/72/147 79/78/147 78/76/147
f 76/72/148 77/86/148 80/77/148
f 6/79/149 14/81/149 72/71/149
f 14/81/150 13/83/150 73/75/150
f 12/82/151 74/74/151 73/75/151
f 2/84/152 44/101/152 74/74/152
f 74/74/153 44/101/153 43/85/153
f 43/85/154 42/106/154 80/77/154
f 80/77/155 42/106/155 4/32/155
f 79/78/156 80/77/156 35/87/156
f 79/78/157 34/88/157 33/89/157
f 78/76/158 33/89/158 8/90/158
f 10/92/159 75/73/159 78/76/159
f 72/71/160 75/73/160 10/92/160
f 81/93/161 82/97/161 85/94/161
f 83/96/162 86/105/162 85/94/162
f 85/94/163 88/100/163 87/98/163
f 85/94/164 86/105/164 89/99/164
f 2/84/165 17/102/165 81/93/165
f 17/102/166 16/104/166 82/97/166
f 15/103/167 83/96/167 82/97/167
f 1/9/168 30/10/168 83/96/168
f 30/10/169 31/23/169 86/105/169
f 86/105/170 31/23/170 32/22/170
f 89/99/171 32/22/171 3/21/171
f 88/100/172 89/99/172 21/36/172
f 88/100/173 22/34/173 23/35/173
f 87/98/174 23/35/174 4/32/174
f 84/95/175 87/98/175 42/106/175
f 44/101/176 81/93/176 84/95/176
f 90/107/177 91/111/177 94/108/177
f 92/110/178 95/117/178 94/108/178
f 94/108/179 97/114/179 96/112/179
f 94/108/180 95/117/180 98/113/180
f 6/68/181 26/67/181 90/107/181
f 25/66/182 91/111/182 90/107/182
f 25/66/183 24/65/183 92/110/183
f 5/64/184 39/116/184 92/110/184
f 39/116/185 40/125/185 95/117/185
f 95/117/186 40/125/186 41/118/186
f 98/113/187 41/118/187 1/9/187
f 98/113/188 15/103/188 16/104/188
f 96/112/189 97/114/189 16/104/189
f 96/112/190 17/102/190 2/84/190
f 93/109/191 96/112/191 12/119/191
f 14/115/192 90/107/192 93/109/192
