# Blender 4.4.1
# www.blender.org
mtllib kanban2.mtl
o 立方体
v -0.174392 -4.762323 0.144587
v -0.174392 -1.293401 0.144587
v -0.174392 -4.762323 -0.144587
v -0.174392 -1.293401 -0.144587
v 0.174392 -4.762323 0.144587
v 0.174392 -1.293401 0.144587
v 0.174392 -4.762323 -0.144587
v 0.174392 -1.293401 -0.144587
v 0.167215 1.691017 -2.598135
v 0.167215 -1.691018 -2.598135
v 0.167215 1.691017 2.598135
v 0.167215 -1.691018 2.598135
v -0.167215 1.691017 -2.598135
v -0.167215 -1.691018 -2.598135
v -0.167215 1.691017 2.598135
v -0.167215 -1.691018 2.598135
vn -1.0000 -0.0000 -0.0000
vn -0.0000 -0.0000 -1.0000
vn 1.0000 -0.0000 -0.0000
vn -0.0000 -0.0000 1.0000
vn -0.0000 -1.0000 -0.0000
vn -0.0000 1.0000 -0.0000
vt 0.999870 0.040149
vt 0.999870 0.438158
vt 0.966691 0.438158
vt 0.966691 0.040149
vt 0.926673 0.438158
vt 0.926673 0.040149
vt 0.893494 0.438158
vt 0.893494 0.040149
vt 0.853476 0.438158
vt 0.853476 0.040149
vt 0.926673 0.000131
vt 0.893494 0.000131
vt 0.926673 0.478176
vt 0.893494 0.478176
vt 0.426542 0.038501
vt 0.464913 0.038501
vt 0.464913 0.634700
vt 0.426542 0.634700
vt 0.038502 0.634700
vt 0.426542 0.673071
vt 0.038502 0.673071
vt 0.853215 0.596329
vt 0.465174 0.596329
vt 0.465174 0.000131
vt 0.853215 0.000130
vt 0.000130 0.038502
vt 0.038501 0.038502
vt 0.000131 0.634700
vt 0.038501 0.000131
vt 0.426542 0.000130
s 0
usemtl 
f 1/1/1 2/2/1 4/3/1 3/4/1
f 3/4/2 4/3/2 8/5/2 7/6/2
f 7/6/3 8/5/3 6/7/3 5/8/3
f 5/8/4 6/7/4 2/9/4 1/10/4
f 3/11/5 7/6/5 5/8/5 1/12/5
f 8/5/6 4/13/6 2/14/6 6/7/6
usemtl Material
f 9/15/6 13/16/6 15/17/6 11/18/6
f 12/19/4 11/18/4 15/20/4 16/21/4
f 16/22/1 15/23/1 13/24/1 14/25/1
f 14/26/5 10/27/5 12/19/5 16/28/5
f 10/27/3 9/15/3 11/18/3 12/19/3
f 14/29/2 13/30/2 9/15/2 10/27/2
