# Blender 4.4.1
# www.blender.org
mtllib kanban.mtl
o 立方体
v -0.129147 0.790329 2.727601
v -0.129147 4.008859 2.727601
v -0.129147 0.790329 -2.727601
v -0.129147 4.008859 -2.727601
v 0.129147 0.790329 2.727601
v 0.129147 4.008859 2.727601
v 0.129147 0.790329 -2.727601
v 0.129147 4.008859 -2.727601
v 0.129802 1.000000 -0.119285
v 0.129802 -1.000000 -0.119285
v 0.129802 1.000000 0.119285
v 0.129802 -1.000000 0.119285
v -0.129802 1.000000 -0.119285
v -0.129802 -1.000000 -0.119285
v -0.129802 1.000000 0.119285
v -0.129802 -1.000000 0.119285
vn -1.0000 -0.0000 -0.0000
vn -0.0000 -0.0000 -1.0000
vn 1.0000 -0.0000 -0.0000
vn -0.0000 -0.0000 1.0000
vn -0.0000 -1.0000 -0.0000
vn -0.0000 1.0000 -0.0000
vt 0.466448 0.731198
vt 0.897743 0.000180
vt 0.897743 0.731198
vt 0.967688 0.999820
vt 0.933075 0.568524
vt 0.967688 0.568524
vt 0.431475 0.000180
vt 0.000180 0.731198
vt 0.000180 0.000180
vt 0.431475 0.731198
vt 0.000180 0.765811
vt 0.932716 0.000180
vt 0.898103 0.731198
vt 0.898103 0.000180
vt 0.466088 0.000180
vt 0.967863 0.268188
vt 0.933075 0.300157
vt 0.933075 0.268188
vt 0.967863 0.568165
vt 0.933075 0.568165
vt 0.498417 0.999566
vt 0.466448 0.731558
vt 0.498417 0.731558
vt 0.531106 0.731558
vt 0.563076 0.766346
vt 0.531106 0.766346
vt 0.530746 0.999566
vt 0.498777 0.731558
vt 0.530746 0.731558
vt 0.933075 0.000180
vt 0.967863 0.000180
vt 0.466448 0.000180
vt 0.933075 0.999820
vt 0.431475 0.765811
vt 0.932716 0.731198
vt 0.466088 0.731198
vt 0.967863 0.300157
vt 0.466448 0.999566
vt 0.563076 0.731558
vt 0.498777 0.999566
s 0
usemtl マテリアル
f 2/1/1 3/2/1 1/3/1
f 4/4/2 7/5/2 3/6/2
f 8/7/3 5/8/3 7/9/3
f 6/10/4 1/11/4 5/8/4
f 7/12/5 1/13/5 3/14/5
f 4/15/6 6/10/6 8/7/6
f 2/1/1 4/32/1 3/2/1
f 4/4/2 8/33/2 7/5/2
f 8/7/3 6/10/3 5/8/3
f 6/10/4 2/34/4 1/11/4
f 7/12/5 5/35/5 1/13/5
f 4/15/6 2/36/6 6/10/6
usemtl Material
f 13/16/6 11/17/6 9/18/6
f 11/17/4 16/19/4 12/20/4
f 15/21/1 14/22/1 16/23/1
f 10/24/5 16/25/5 14/26/5
f 9/27/3 12/28/3 10/29/3
f 13/16/2 10/30/2 14/31/2
f 13/16/6 15/37/6 11/17/6
f 11/17/4 15/37/4 16/19/4
f 15/21/1 13/38/1 14/22/1
f 10/24/5 12/39/5 16/25/5
f 9/27/3 11/40/3 12/28/3
f 13/16/2 9/18/2 10/30/2
