# Blender 4.4.1
# www.blender.org
mtllib playermax.mtl
o Cube
v -0.242617 0.610623 0.500000
v -0.297995 -0.750000 0.500000
v -0.297995 0.750000 -0.500000
v -0.297995 -0.750000 -0.500000
v 0.242617 0.610623 0.500000
v 0.297995 -0.750000 0.500000
v 0.297995 0.750000 -0.500000
v 0.297995 -0.750000 -0.500000
v -0.242617 0.139377 0.500000
v 0.297995 0.000000 -0.500000
v -0.297995 0.000000 -0.500000
v 0.242617 0.139377 0.500000
v 0.297995 0.750000 0.500000
v -0.297995 0.750000 0.500000
v -0.297995 0.000000 0.500000
v 0.297995 0.000000 0.500000
v 0.297995 0.750000 0.500000
v -0.297995 0.750000 0.500000
v -0.297995 0.000000 0.500000
v 0.297995 0.000000 0.500000
v 0.242617 0.610623 1.043525
v -0.242617 0.610623 1.043525
v -0.242617 0.139377 1.043525
v 0.242617 0.139377 1.043525
v -0.297995 -0.375000 0.500000
v -0.297995 -0.375000 -0.500000
v 0.297995 -0.375000 0.500000
v 0.297995 -0.375000 -0.500000
v -0.036226 -0.660538 -0.500000
v -0.036226 -0.660538 -1.202455
v 0.095038 -0.660538 -0.500000
v 0.095038 -0.660538 -1.202455
v -0.036226 -0.520308 -0.500000
v -0.036226 -0.520308 -1.202455
v 0.095038 -0.520308 -0.500000
v 0.095038 -0.520308 -1.202455
vn -0.0000 1.0000 -0.0000
vn -0.0000 -0.0000 -1.0000
vn 1.0000 -0.0000 -0.0000
vn -0.0000 -1.0000 -0.0000
vn -1.0000 -0.0000 -0.0000
vn -0.0000 -0.0000 1.0000
vt 0.131860 0.245622
vt 0.508951 0.207702
vt 0.339366 0.415207
vt 0.782289 0.084988
vt 0.612704 0.292494
vt 0.000196 0.830219
vt 0.273534 0.707506
vt 0.103949 0.915012
vt 0.748574 0.669572
vt 0.480557 0.937589
vt 0.480557 0.669572
vt 0.443119 0.500000
vt 0.861719 0.433174
vt 0.887007 0.172028
vt 0.999804 0.264212
vt 0.494995 0.542396
vt 0.325410 0.749902
vt 0.664581 0.334890
vt 0.155825 0.957408
vt 0.834166 0.127385
vt 0.025934 0.001173
vt 0.026200 0.267462
vt 0.025934 0.267615
vt 0.116029 0.168332
vt 0.115861 0.000757
vt 0.116029 0.000660
vt 0.113990 0.000757
vt 0.114158 0.168332
vt 0.113990 0.168429
vt 0.442911 0.499830
vt 0.273326 0.707336
vt 0.001176 0.025931
vt 0.001176 0.242858
vt 0.130426 0.252069
vt 0.021320 0.276972
vt 0.046224 0.252069
vt 0.230187 0.109840
vt 0.205283 0.000735
vt 0.230187 0.025638
vt 0.407873 0.503354
vt 0.269803 0.672298
vt 0.028085 0.218958
vt 0.112286 0.000748
vt 0.112286 0.218958
vt 0.202115 0.000298
vt 0.117914 0.145972
vt 0.117914 0.000298
vt 0.808435 0.498372
vt 0.748922 0.340990
vt 0.670350 0.667335
vt 0.695639 0.406188
vt 0.886042 0.169781
vt 0.716457 0.377287
vt 0.377287 0.792299
vt 0.207701 0.999804
vt 0.546872 0.584793
vt 0.026217 0.316531
vt 0.214488 0.375560
vt 0.026217 0.375560
vt 0.026217 0.400616
vt 0.214488 0.400616
vt 0.026217 0.459646
vt 0.214488 0.459646
vt 0.026217 0.484702
vt 0.001161 0.459646
vt 0.001161 0.400616
vt 0.239544 0.400616
vt 0.301445 0.038116
vt 0.678536 0.000196
vt 0.169781 0.622713
vt 0.748574 0.937589
vt 0.026200 0.001020
vt 0.115861 0.168429
vt 0.114158 0.000660
vt 0.155329 0.276972
vt 0.205283 0.134743
vt 0.028085 0.000748
vt 0.202115 0.145972
vt 0.557553 0.575151
vt 0.214488 0.316531
vt 0.214488 0.484702
vt 0.239544 0.459646
s 0
usemtl Material
f 13/1/1 3/2/1 14/3/1
f 3/2/2 10/4/2 11/5/2
f 7/6/3 16/7/3 10/8/3
f 2/9/4 8/10/4 6/11/4
f 14/3/5 11/5/5 15/12/5
f 12/13/4 23/14/4 9/15/4
f 16/7/6 25/16/6 27/17/6
f 15/12/5 26/18/5 25/16/5
f 10/8/3 27/17/3 28/19/3
f 11/5/2 28/20/2 26/18/2
f 17/21/1 14/22/1 18/23/1
f 18/24/1 15/25/1 19/26/1
f 20/27/1 13/28/1 17/29/1
f 19/30/1 16/7/1 20/31/1
f 5/32/6 18/23/6 1/33/6
f 1/34/6 19/35/6 9/36/6
f 12/37/6 17/38/6 5/39/6
f 9/40/6 20/31/6 12/41/6
f 21/42/6 23/43/6 24/44/6
f 9/45/5 22/46/5 1/47/5
f 5/48/3 24/49/3 12/13/3
f 1/50/1 21/51/1 5/48/1
f 26/18/2 8/52/2 4/53/2
f 28/19/3 6/54/3 8/55/3
f 25/16/5 4/53/5 2/56/5
f 27/17/6 2/56/6 6/54/6
f 29/57/4 32/58/4 31/59/4
f 32/58/3 35/60/3 31/59/3
f 36/61/1 33/62/1 35/60/1
f 34/63/5 29/64/5 33/62/5
f 35/60/6 29/65/6 31/66/6
f 32/67/2 34/63/2 36/61/2
f 13/1/1 7/68/1 3/2/1
f 3/2/2 7/69/2 10/4/2
f 7/6/3 13/70/3 16/7/3
f 2/9/4 4/71/4 8/10/4
f 14/3/5 3/2/5 11/5/5
f 12/13/4 24/49/4 23/14/4
f 16/7/6 15/12/6 25/16/6
f 15/12/5 11/5/5 26/18/5
f 10/8/3 16/7/3 27/17/3
f 11/5/2 10/4/2 28/20/2
f 17/21/1 13/72/1 14/22/1
f 18/24/1 14/73/1 15/25/1
f 20/27/1 16/74/1 13/28/1
f 19/30/1 15/12/1 16/7/1
f 5/32/6 17/21/6 18/23/6
f 1/34/6 18/75/6 19/35/6
f 12/37/6 20/76/6 17/38/6
f 9/40/6 19/30/6 20/31/6
f 21/42/6 22/77/6 23/43/6
f 9/45/5 23/78/5 22/46/5
f 5/48/3 21/51/3 24/49/3
f 1/50/1 22/79/1 21/51/1
f 26/18/2 28/20/2 8/52/2
f 28/19/3 27/17/3 6/54/3
f 25/16/5 26/18/5 4/53/5
f 27/17/6 25/16/6 2/56/6
f 29/57/4 30/80/4 32/58/4
f 32/58/3 36/61/3 35/60/3
f 36/61/1 34/63/1 33/62/1
f 34/63/5 30/81/5 29/64/5
f 35/60/6 33/62/6 29/65/6
f 32/67/2 30/82/2 34/63/2
