# Blender 4.4.1
# www.blender.org
mtllib sora.mtl
o 平面
v 0.000000 5.000000 5.000000
v -0.000000 -5.000000 5.000000
v 0.000000 5.000000 -5.000000
v -0.000000 -5.000000 -5.000000
v 0.346368 5.000000 -5.000000
v 0.346368 5.000000 5.000000
v 0.346367 -5.000000 5.000000
v 0.346367 -5.000000 -5.000000
vn -1.0000 -0.0000 -0.0000
vn 1.0000 -0.0000 -0.0000
vn -0.0000 -1.0000 -0.0000
vn -0.0000 1.0000 -0.0000
vn -0.0000 -0.0000 -1.0000
vn -0.0000 -0.0000 1.0000
vt 0.000183 0.000183
vt 0.499817 0.499817
vt 0.000183 0.499817
vt 0.999817 0.000183
vt 0.500183 0.499817
vt 0.500183 0.000183
vt 0.086712 0.999817
vt 0.000183 0.500183
vt 0.086712 0.500183
vt 0.173606 0.999817
vt 0.087078 0.500183
vt 0.173606 0.500183
vt 0.260501 0.999817
vt 0.173973 0.500183
vt 0.260501 0.500183
vt 0.347396 0.999817
vt 0.260867 0.500183
vt 0.347396 0.500183
vt 0.499817 0.000183
vt 0.999817 0.499817
vt 0.000183 0.999817
vt 0.087078 0.999817
vt 0.173973 0.999817
vt 0.260867 0.999817
s 0
usemtl マテリアル
f 3/1/1 2/2/1 1/3/1
f 7/4/2 5/5/2 6/6/2
f 4/7/3 7/8/3 2/9/3
f 1/10/4 5/11/4 3/12/4
f 3/13/5 8/14/5 4/15/5
f 2/16/6 6/17/6 1/18/6
f 3/1/1 4/19/1 2/2/1
f 7/4/2 8/20/2 5/5/2
f 4/7/3 8/21/3 7/8/3
f 1/10/4 6/22/4 5/11/4
f 3/13/5 5/23/5 8/14/5
f 2/16/6 7/24/6 6/17/6
