# Blender 4.4.1
# www.blender.org
mtllib ADBoard.mtl
o Cube
v 0.087812 1.000000 -1.000000
v 0.087812 -1.000000 -1.000000
v 0.087812 1.000000 1.000000
v 0.087812 -1.000000 1.000000
v -0.087812 1.000000 -1.000000
v -0.087812 -1.000000 -1.000000
v -0.087812 1.000000 1.000000
v -0.087812 -1.000000 1.000000
v 0.000000 -2.028133 -0.116271
v 0.000000 -0.748563 -0.116271
v 0.022683 -2.028133 -0.114037
v 0.022683 -0.748563 -0.114037
v 0.044495 -2.028133 -0.107421
v 0.044495 -0.748563 -0.107421
v 0.064597 -2.028133 -0.096676
v 0.064597 -0.748563 -0.096676
v 0.082216 -2.028133 -0.082216
v 0.082216 -0.748563 -0.082216
v 0.096676 -2.028133 -0.064597
v 0.096676 -0.748563 -0.064597
v 0.107421 -2.028133 -0.044495
v 0.107421 -0.748563 -0.044495
v 0.114037 -2.028133 -0.022683
v 0.114037 -0.748563 -0.022683
v 0.116271 -2.028133 0.000000
v 0.116271 -0.748563 0.000000
v 0.114037 -2.028133 0.022683
v 0.114037 -0.748563 0.022683
v 0.107421 -2.028133 0.044495
v 0.107421 -0.748563 0.044495
v 0.096676 -2.028133 0.064597
v 0.096676 -0.748563 0.064597
v 0.082216 -2.028133 0.082216
v 0.082216 -0.748563 0.082216
v 0.064597 -2.028133 0.096676
v 0.064597 -0.748563 0.096676
v 0.044495 -2.028133 0.107421
v 0.044495 -0.748563 0.107421
v 0.022683 -2.028133 0.114037
v 0.022683 -0.748563 0.114037
v 0.000000 -2.028133 0.116271
v 0.000000 -0.748563 0.116271
v -0.022683 -2.028133 0.114037
v -0.022683 -0.748563 0.114037
v -0.044495 -2.028133 0.107421
v -0.044495 -0.748563 0.107421
v -0.064597 -2.028133 0.096676
v -0.064597 -0.748563 0.096676
v -0.082216 -2.028133 0.082216
v -0.082216 -0.748563 0.082216
v -0.096676 -2.028133 0.064597
v -0.096676 -0.748563 0.064597
v -0.107421 -2.028133 0.044495
v -0.107421 -0.748563 0.044495
v -0.114037 -2.028133 0.022683
v -0.114037 -0.748563 0.022683
v -0.116271 -2.028133 0.000000
v -0.116271 -0.748563 0.000000
v -0.114037 -2.028133 -0.022683
v -0.114037 -0.748563 -0.022683
v -0.107421 -2.028133 -0.044495
v -0.107421 -0.748563 -0.044495
v -0.096676 -2.028133 -0.064597
v -0.096676 -0.748563 -0.064597
v -0.082216 -2.028133 -0.082216
v -0.082216 -0.748563 -0.082216
v -0.064597 -2.028133 -0.096676
v -0.064597 -0.748563 -0.096676
v -0.044495 -2.028133 -0.107421
v -0.044495 -0.748563 -0.107421
v -0.022683 -2.028133 -0.114037
v -0.022683 -0.748563 -0.114037
vn -0.0000 1.0000 -0.0000
vn -0.0000 -0.0000 1.0000
vn -1.0000 -0.0000 -0.0000
vn -0.0000 -1.0000 -0.0000
vn 1.0000 -0.0000 -0.0000
vn -0.0000 -0.0000 -1.0000
vn 0.0980 -0.0000 -0.9952
vn 0.2903 -0.0000 -0.9569
vn 0.4714 -0.0000 -0.8819
vn 0.6344 -0.0000 -0.7730
vn 0.7730 -0.0000 -0.6344
vn 0.8819 -0.0000 -0.4714
vn 0.9569 -0.0000 -0.2903
vn 0.9952 -0.0000 -0.0980
vn 0.9952 -0.0000 0.0980
vn 0.9569 -0.0000 0.2903
vn 0.8819 -0.0000 0.4714
vn 0.7730 -0.0000 0.6344
vn 0.6344 -0.0000 0.7730
vn 0.4714 -0.0000 0.8819
vn 0.2903 -0.0000 0.9569
vn 0.0980 -0.0000 0.9952
vn -0.0980 -0.0000 0.9952
vn -0.2903 -0.0000 0.9569
vn -0.4714 -0.0000 0.8819
vn -0.6344 -0.0000 0.7730
vn -0.7730 -0.0000 0.6344
vn -0.8819 -0.0000 0.4714
vn -0.9569 -0.0000 0.2903
vn -0.9952 -0.0000 0.0980
vn -0.9952 -0.0000 -0.0980
vn -0.9569 -0.0000 -0.2903
vn -0.8819 -0.0000 -0.4714
vn -0.7730 -0.0000 -0.6344
vn -0.6344 -0.0000 -0.7730
vn -0.4714 -0.0000 -0.8819
vn -0.2903 -0.0000 -0.9569
vn -0.0980 -0.0000 -0.9952
vn 0.0001 -1.0000 -0.0000
vn -0.0001 -1.0000 -0.0000
vt 0.592789 0.009508
vt 0.558914 0.395274
vt 0.558914 0.009508
vt 0.453131 0.009508
vt 0.487006 0.395274
vt 0.453131 0.395274
vt 0.048348 0.395274
vt 0.434114 0.009508
vt 0.434114 0.395274
vt 0.539897 0.009508
vt 0.506022 0.395274
vt 0.506022 0.009508
vt 0.434114 0.414291
vt 0.048348 0.800057
vt 0.048348 0.414291
vt 0.645681 0.395274
vt 0.611806 0.009508
vt 0.645681 0.009508
vt 0.025688 0.977265
vt 0.013034 0.022731
vt 0.011694 0.026330
vt 0.027348 0.973916
vt 0.014935 0.019109
vt 0.028775 0.970784
vt 0.016989 0.015168
vt 0.029114 0.967573
vt 0.019332 0.009508
vt 0.029331 0.964754
vt 0.021666 0.014444
vt 0.029049 0.961977
vt 0.023687 0.019183
vt 0.028661 0.959616
vt 0.025513 0.023606
vt 0.027867 0.957383
vt 0.026758 0.026791
vt 0.026988 0.955580
vt 0.027877 0.029634
vt 0.026001 0.954172
vt 0.028658 0.032397
vt 0.024921 0.953155
vt 0.029331 0.034802
vt 0.023085 0.952057
vt 0.029046 0.037617
vt 0.021211 0.951425
vt 0.028579 0.040092
vt 0.019274 0.951180
vt 0.027970 0.042206
vt 0.017333 0.951403
vt 0.027285 0.043907
vt 0.015509 0.952006
vt 0.025887 0.045729
vt 0.013715 0.953068
vt 0.024426 0.047107
vt 0.011997 0.954571
vt 0.022759 0.048161
vt 0.010392 0.956504
vt 0.021063 0.048761
vt 0.009919 0.958087
vt 0.019321 0.049003
vt 0.009516 0.960074
vt 0.017585 0.048809
vt 0.009508 0.962130
vt 0.015883 0.048174
vt 0.009591 0.964571
vt 0.014221 0.047081
vt 0.010182 0.966961
vt 0.012914 0.045894
vt 0.010880 0.969713
vt 0.011668 0.044263
vt 0.011761 0.972745
vt 0.010639 0.042300
vt 0.012861 0.976023
vt 0.009701 0.039901
vt 0.014756 0.979837
vt 0.009663 0.037825
vt 0.016819 0.983966
vt 0.009787 0.035426
vt 0.019281 0.990492
vt 0.010081 0.032697
vt 0.021764 0.984737
vt 0.010492 0.029580
vt 0.023802 0.980841
vt 0.592789 0.395274
vt 0.487006 0.009508
vt 0.048348 0.009508
vt 0.539897 0.395274
vt 0.434114 0.800057
vt 0.611806 0.395274
s 0
usemtl Material
f 5/1/1 3/2/1 1/3/1
f 3/4/2 8/5/2 4/6/2
f 7/7/3 6/8/3 8/9/3
f 2/10/4 8/11/4 6/12/4
f 1/13/5 4/14/5 2/15/5
f 5/16/6 2/17/6 6/18/6
f 5/1/1 7/83/1 3/2/1
f 3/4/2 7/84/2 8/5/2
f 7/7/3 5/85/3 6/8/3
f 2/10/4 4/86/4 8/11/4
f 1/13/5 3/87/5 4/14/5
f 5/16/6 1/88/6 2/17/6
usemtl 
f 10/19/7 11/20/7 9/21/7
f 12/22/8 13/23/8 11/20/8
f 14/24/9 15/25/9 13/23/9
f 16/26/10 17/27/10 15/25/10
f 18/28/11 19/29/11 17/27/11
f 20/30/12 21/31/12 19/29/12
f 22/32/13 23/33/13 21/31/13
f 24/34/14 25/35/14 23/33/14
f 26/36/15 27/37/15 25/35/15
f 28/38/16 29/39/16 27/37/16
f 30/40/17 31/41/17 29/39/17
f 32/42/18 33/43/18 31/41/18
f 34/44/19 35/45/19 33/43/19
f 36/46/20 37/47/20 35/45/20
f 38/48/21 39/49/21 37/47/21
f 40/50/22 41/51/22 39/49/22
f 42/52/23 43/53/23 41/51/23
f 44/54/24 45/55/24 43/53/24
f 46/56/25 47/57/25 45/55/25
f 48/58/26 49/59/26 47/57/26
f 50/60/27 51/61/27 49/59/27
f 52/62/28 53/63/28 51/61/28
f 54/64/29 55/65/29 53/63/29
f 56/66/30 57/67/30 55/65/30
f 58/68/31 59/69/31 57/67/31
f 60/70/32 61/71/32 59/69/32
f 62/72/33 63/73/33 61/71/33
f 64/74/34 65/75/34 63/73/34
f 66/76/35 67/77/35 65/75/35
f 68/78/36 69/79/36 67/77/36
f 46/56/1 30/40/1 14/24/1
f 70/80/37 71/81/37 69/79/37
f 72/82/38 9/21/38 71/81/38
f 63/73/4 71/81/4 39/49/4
f 10/19/7 12/22/7 11/20/7
f 12/22/8 14/24/8 13/23/8
f 14/24/9 16/26/9 15/25/9
f 16/26/10 18/28/10 17/27/10
f 18/28/11 20/30/11 19/29/11
f 20/30/12 22/32/12 21/31/12
f 22/32/13 24/34/13 23/33/13
f 24/34/14 26/36/14 25/35/14
f 26/36/15 28/38/15 27/37/15
f 28/38/16 30/40/16 29/39/16
f 30/40/17 32/42/17 31/41/17
f 32/42/18 34/44/18 33/43/18
f 34/44/19 36/46/19 35/45/19
f 36/46/20 38/48/20 37/47/20
f 38/48/21 40/50/21 39/49/21
f 40/50/22 42/52/22 41/51/22
f 42/52/23 44/54/23 43/53/23
f 44/54/24 46/56/24 45/55/24
f 46/56/25 48/58/25 47/57/25
f 48/58/26 50/60/26 49/59/26
f 50/60/27 52/62/27 51/61/27
f 52/62/28 54/64/28 53/63/28
f 54/64/29 56/66/29 55/65/29
f 56/66/30 58/68/30 57/67/30
f 58/68/31 60/70/31 59/69/31
f 60/70/32 62/72/32 61/71/32
f 62/72/33 64/74/33 63/73/33
f 64/74/34 66/76/34 65/75/34
f 66/76/35 68/78/35 67/77/35
f 68/78/36 70/80/36 69/79/36
f 14/24/1 12/22/1 70/80/1
f 12/22/1 10/19/1 70/80/1
f 10/19/1 72/82/1 70/80/1
f 70/80/1 68/78/1 66/76/1
f 66/76/1 64/74/1 62/72/1
f 62/72/1 60/70/1 54/64/1
f 60/70/1 58/68/1 54/64/1
f 58/68/1 56/66/1 54/64/1
f 54/64/1 52/62/1 50/60/1
f 50/60/1 48/58/1 46/56/1
f 46/56/1 44/54/1 38/48/1
f 44/54/1 42/52/1 38/48/1
f 42/52/1 40/50/1 38/48/1
f 38/48/1 36/46/1 34/44/1
f 34/44/1 32/42/1 30/40/1
f 30/40/1 28/38/1 22/32/1
f 28/38/1 26/36/1 22/32/1
f 26/36/1 24/34/1 22/32/1
f 22/32/1 20/30/1 18/28/1
f 18/28/1 16/26/1 14/24/1
f 70/80/1 66/76/1 14/24/1
f 66/76/1 62/72/1 14/24/1
f 54/64/1 50/60/1 62/72/1
f 50/60/1 46/56/1 62/72/1
f 38/48/1 34/44/1 46/56/1
f 34/44/1 30/40/1 46/56/1
f 22/32/1 18/28/1 30/40/1
f 18/28/1 14/24/1 30/40/1
f 14/24/1 62/72/1 46/56/1
f 70/80/37 72/82/37 71/81/37
f 72/82/38 10/19/38 9/21/38
f 71/81/4 9/21/4 11/20/4
f 11/20/4 13/23/4 15/25/4
f 15/25/4 17/27/4 23/33/4
f 17/27/4 19/29/4 23/33/4
f 19/29/39 21/31/39 23/33/39
f 23/33/4 25/35/4 27/37/4
f 27/37/39 29/39/39 31/41/39
f 31/41/4 33/43/4 39/49/4
f 33/43/4 35/45/4 39/49/4
f 35/45/4 37/47/4 39/49/4
f 39/49/4 41/51/4 43/53/4
f 43/53/4 45/55/4 47/57/4
f 47/57/4 49/59/4 55/65/4
f 49/59/4 51/61/4 55/65/4
f 51/61/40 53/63/40 55/65/40
f 55/65/4 57/67/4 59/69/4
f 59/69/40 61/71/40 63/73/40
f 63/73/4 65/75/4 71/81/4
f 65/75/4 67/77/4 71/81/4
f 67/77/4 69/79/4 71/81/4
f 71/81/4 11/20/4 23/33/4
f 11/20/4 15/25/4 23/33/4
f 23/33/4 27/37/4 31/41/4
f 39/49/4 43/53/4 55/65/4
f 43/53/4 47/57/4 55/65/4
f 55/65/4 59/69/4 63/73/4
f 23/33/4 31/41/4 71/81/4
f 31/41/4 39/49/4 71/81/4
f 55/65/4 63/73/4 39/49/4
