# Blender 4.4.1
# www.blender.org
mtllib CircleEnemy.mtl
o Cube
v 0.500000 0.500000 -0.500000
v 0.500000 -0.500000 -0.500000
v 0.500000 0.500000 0.500000
v 0.500000 -0.500000 0.500000
v -0.500000 0.500000 -0.500000
v -0.500000 -0.500000 -0.500000
v -0.500000 0.500000 0.500000
v -0.500000 -0.500000 0.500000
v -0.572933 -0.572933 -0.296650
v -0.609568 -0.609568 -0.000000
v -0.572933 -0.572933 0.296650
v 0.296650 -0.572933 -0.572933
v 0.000000 -0.609568 -0.609568
v -0.296650 -0.572933 -0.572933
v 0.572933 0.296650 -0.572933
v 0.609568 0.000000 -0.609568
v 0.572933 -0.296650 -0.572933
v -0.572933 -0.296650 0.572933
v -0.609568 -0.000000 0.609568
v -0.572933 0.296650 0.572933
v 0.572933 0.296650 0.572933
v 0.609568 0.000000 0.609568
v 0.572933 -0.296650 0.572933
v -0.572933 0.296650 -0.572933
v -0.609568 -0.000000 -0.609568
v -0.572933 -0.296650 -0.572933
v 0.296650 0.572933 0.572933
v -0.000000 0.609568 0.609568
v -0.296650 0.572933 0.572933
v 0.572933 0.572933 -0.296650
v 0.609568 0.609568 0.000000
v 0.572933 0.572933 0.296650
v -0.296650 -0.572933 0.572933
v -0.000000 -0.609568 0.609568
v 0.296650 -0.572933 0.572933
v -0.572933 0.572933 0.296650
v -0.609568 0.609568 -0.000000
v -0.572933 0.572933 -0.296650
v -0.296650 0.572933 -0.572933
v 0.000000 0.609568 -0.609568
v 0.296650 0.572933 -0.572933
v 0.572933 -0.572933 0.296650
v 0.609568 -0.609568 0.000000
v 0.572933 -0.572933 -0.296650
v 0.316157 0.728990 -0.316157
v 0.000000 0.781829 -0.333140
v -0.316157 0.728990 -0.316157
v 0.333140 0.781829 0.000000
v -0.000000 0.839506 -0.000000
v -0.333140 0.781829 -0.000000
v 0.316157 0.728990 0.316157
v -0.000000 0.781829 0.333140
v -0.316157 0.728990 0.316157
v 0.316157 -0.316157 0.728990
v 0.333140 -0.000000 0.781829
v 0.316157 0.316157 0.728990
v -0.000000 -0.333140 0.781829
v 0.000000 0.000000 0.839506
v 0.000000 0.751952 1.183750
v -0.316157 -0.316157 0.728990
v -0.333140 0.000000 0.781829
v -0.316157 0.316157 0.728990
v -0.728990 -0.316157 0.316157
v -0.781829 -0.000000 0.333140
v -0.728990 0.316157 0.316157
v -0.781829 -0.333140 -0.000000
v -0.839506 0.000000 -0.000000
v -1.256411 0.780930 0.000000
v -0.728990 -0.316157 -0.316157
v -0.781829 0.000000 -0.333140
v -0.728990 0.316157 -0.316157
v -0.316157 -0.728990 -0.316157
v -0.000000 -0.781829 -0.333140
v 0.316157 -0.728990 -0.316157
v -0.333140 -0.781829 0.000000
v 0.000000 -0.839506 0.000000
v 0.333140 -0.781829 -0.000000
v -0.316157 -0.728990 0.316157
v 0.000000 -0.781829 0.333140
v 0.316157 -0.728990 0.316157
v 0.728990 -0.316157 -0.316157
v 0.781829 -0.000000 -0.333140
v 0.728990 0.316157 -0.316157
v 0.781829 -0.333140 0.000000
v 0.839506 0.000000 -0.000000
v 1.192966 0.723600 -0.000000
v 0.728990 -0.316157 0.316157
v 0.781829 0.000000 0.333140
v 0.728990 0.316157 0.316157
v -0.316157 -0.316157 -0.728990
v -0.333140 -0.000000 -0.781829
v -0.316157 0.316157 -0.728990
v 0.000000 -0.333140 -0.781829
v 0.000000 0.000000 -0.839506
v -0.000000 0.790796 -1.257044
v 0.316157 -0.316157 -0.728990
v 0.333140 0.000000 -0.781829
v 0.316157 0.316157 -0.728990
vn 0.1681 0.9708 -0.1713
vn -0.1713 0.9708 -0.1681
vn 0.1681 0.9708 0.1713
vn -0.1713 0.9708 0.1681
vn 0.4896 0.7501 -0.4446
vn 0.1678 0.8367 -0.5213
vn -0.1677 0.8367 -0.5214
vn -0.4446 0.7501 -0.4896
vn -0.5213 0.8367 -0.1678
vn -0.5213 0.8367 0.1678
vn -0.4446 0.7501 0.4896
vn -0.1677 0.8367 0.5214
vn 0.1678 0.8367 0.5213
vn 0.4896 0.7501 0.4446
vn 0.5214 0.8367 0.1677
vn 0.5214 0.8367 -0.1677
vn 0.1713 -0.1681 0.9708
vn 0.1681 0.1713 0.9708
vn -0.1713 -0.1681 0.9708
vn -0.1681 0.1713 0.9708
vn 0.4446 -0.4896 0.7501
vn 0.5213 -0.1678 0.8367
vn 0.5214 0.1677 0.8367
vn 0.4896 0.4446 0.7501
vn 0.7041 0.6892 -0.1709
vn -0.7041 0.6892 -0.1709
vn -0.4896 0.4446 0.7501
vn -0.5214 0.1677 0.8367
vn -0.5213 -0.1678 0.8367
vn -0.4446 -0.4896 0.7501
vn -0.1677 -0.5214 0.8367
vn 0.1677 -0.5214 0.8367
vn -0.9708 -0.1681 0.1713
vn -0.9708 0.1713 0.1681
vn -0.9708 -0.1681 -0.1713
vn -0.9708 0.1713 -0.1681
vn -0.7501 -0.4896 0.4446
vn -0.8367 -0.1678 0.5213
vn -0.8367 0.1677 0.5214
vn -0.7501 0.4446 0.4896
vn 0.1816 0.6856 0.7049
vn 0.1816 0.6856 -0.7049
vn -0.7501 0.4446 -0.4896
vn -0.8367 0.1677 -0.5214
vn -0.8367 -0.1678 -0.5213
vn -0.7501 -0.4896 -0.4446
vn -0.8367 -0.5214 -0.1677
vn -0.8367 -0.5214 0.1677
vn -0.1681 -0.9708 -0.1713
vn 0.1713 -0.9708 -0.1681
vn -0.1681 -0.9708 0.1713
vn 0.1713 -0.9708 0.1681
vn -0.4896 -0.7501 -0.4446
vn -0.1678 -0.8367 -0.5213
vn 0.1677 -0.8367 -0.5214
vn 0.4446 -0.7501 -0.4896
vn 0.5213 -0.8367 -0.1678
vn 0.5213 -0.8367 0.1678
vn 0.4446 -0.7501 0.4896
vn 0.1677 -0.8367 0.5214
vn -0.1678 -0.8367 0.5213
vn -0.4896 -0.7501 0.4446
vn -0.5214 -0.8367 0.1677
vn -0.5214 -0.8367 -0.1677
vn 0.9708 -0.1681 -0.1713
vn 0.9708 0.1713 -0.1681
vn 0.9708 -0.1681 0.1713
vn 0.9708 0.1713 0.1681
vn 0.7501 -0.4896 -0.4446
vn 0.8367 -0.1678 -0.5213
vn 0.8367 0.1677 -0.5214
vn 0.7501 0.4446 -0.4896
vn -0.1368 0.6998 -0.7011
vn -0.1368 0.6998 0.7011
vn 0.7501 0.4446 0.4896
vn 0.8367 0.1677 0.5214
vn 0.8367 -0.1678 0.5213
vn 0.7501 -0.4896 0.4446
vn 0.8367 -0.5214 0.1677
vn 0.8367 -0.5214 -0.1677
vn -0.1713 -0.1681 -0.9708
vn -0.1681 0.1713 -0.9708
vn 0.1713 -0.1681 -0.9708
vn 0.1681 0.1713 -0.9708
vn -0.4446 -0.4896 -0.7501
vn -0.5213 -0.1678 -0.8367
vn -0.5214 0.1677 -0.8367
vn -0.4896 0.4446 -0.7501
vn -0.7055 0.6825 0.1910
vn 0.7055 0.6825 0.1910
vn 0.4896 0.4446 -0.7501
vn 0.5214 0.1677 -0.8367
vn 0.5213 -0.1678 -0.8367
vn 0.4446 -0.4896 -0.7501
vn 0.1677 -0.5214 -0.8367
vn -0.1677 -0.5214 -0.8367
vn 0.1713 0.9708 -0.1681
vn -0.1681 0.9708 -0.1713
vn 0.1713 0.9708 0.1681
vn -0.1681 0.9708 0.1713
vn 0.4446 0.7501 -0.4896
vn 0.1677 0.8367 -0.5214
vn -0.1678 0.8367 -0.5213
vn -0.4896 0.7501 -0.4446
vn -0.5214 0.8367 -0.1677
vn -0.5214 0.8367 0.1677
vn -0.4896 0.7501 0.4446
vn -0.1678 0.8367 0.5213
vn 0.1677 0.8367 0.5214
vn 0.4446 0.7501 0.4896
vn 0.5213 0.8367 0.1678
vn 0.5213 0.8367 -0.1678
vn 0.1681 -0.1713 0.9708
vn 0.5918 -0.3355 0.7330
vn -0.1681 -0.1713 0.9708
vn -0.5918 -0.3355 0.7330
vn 0.4896 -0.4446 0.7501
vn 0.5214 -0.1677 0.8367
vn 0.5213 0.1678 0.8367
vn 0.4446 0.4896 0.7501
vn 0.1677 0.5213 0.8367
vn -0.1677 0.5213 0.8367
vn -0.4446 0.4896 0.7501
vn -0.5213 0.1678 0.8367
vn -0.5214 -0.1677 0.8367
vn -0.4896 -0.4446 0.7501
vn -0.1678 -0.5213 0.8367
vn 0.1678 -0.5213 0.8367
vn -0.9708 -0.1713 0.1681
vn -0.6958 -0.3715 0.6147
vn -0.9708 -0.1713 -0.1681
vn -0.6958 -0.3715 -0.6147
vn -0.7501 -0.4446 0.4896
vn -0.8367 -0.1677 0.5214
vn -0.8367 0.1678 0.5213
vn -0.7501 0.4896 0.4446
vn -0.8367 0.5213 0.1677
vn -0.8367 0.5213 -0.1677
vn -0.7501 0.4896 -0.4446
vn -0.8367 0.1678 -0.5213
vn -0.8367 -0.1677 -0.5214
vn -0.7501 -0.4446 -0.4896
vn -0.8367 -0.5213 -0.1678
vn -0.8367 -0.5213 0.1678
vn -0.1713 -0.9708 -0.1681
vn 0.1681 -0.9708 -0.1713
vn -0.1713 -0.9708 0.1681
vn 0.1681 -0.9708 0.1713
vn -0.4446 -0.7501 -0.4896
vn -0.1677 -0.8367 -0.5214
vn 0.1678 -0.8367 -0.5213
vn 0.4896 -0.7501 -0.4446
vn 0.5214 -0.8367 -0.1677
vn 0.5214 -0.8367 0.1677
vn 0.4896 -0.7501 0.4446
vn 0.1678 -0.8367 0.5213
vn -0.1677 -0.8367 0.5214
vn -0.4446 -0.7501 0.4896
vn -0.5213 -0.8367 0.1678
vn -0.5213 -0.8367 -0.1678
vn 0.9708 -0.1713 -0.1681
vn 0.7178 -0.3506 -0.6015
vn 0.9708 -0.1713 0.1681
vn 0.7178 -0.3506 0.6015
vn 0.7501 -0.4446 -0.4896
vn 0.8367 -0.1677 -0.5214
vn 0.8367 0.1678 -0.5213
vn 0.7501 0.4896 -0.4446
vn 0.8367 0.5213 -0.1677
vn 0.8367 0.5213 0.1677
vn 0.7501 0.4896 0.4446
vn 0.8367 0.1678 0.5213
vn 0.8367 -0.1677 0.5214
vn 0.7501 -0.4446 0.4896
vn 0.8367 -0.5213 0.1678
vn 0.8367 -0.5213 -0.1678
vn -0.1681 -0.1713 -0.9708
vn -0.6131 -0.3689 -0.6986
vn 0.1681 -0.1713 -0.9708
vn 0.6131 -0.3689 -0.6986
vn -0.4896 -0.4446 -0.7501
vn -0.5214 -0.1677 -0.8367
vn -0.5213 0.1678 -0.8367
vn -0.4446 0.4896 -0.7501
vn -0.1677 0.5213 -0.8367
vn 0.1677 0.5213 -0.8367
vn 0.4446 0.4896 -0.7501
vn 0.5213 0.1678 -0.8367
vn 0.5214 -0.1677 -0.8367
vn 0.4896 -0.4446 -0.7501
vn 0.1678 -0.5213 -0.8367
vn -0.1678 -0.5213 -0.8367
vt 0.368516 0.471052
vt 0.288806 0.553116
vt 0.288806 0.469134
vt 0.293042 0.722619
vt 0.372752 0.640554
vt 0.372752 0.724536
vt 0.203131 0.553116
vt 0.282841 0.471052
vt 0.287078 0.550672
vt 0.601153 0.170556
vt 0.680863 0.088492
vt 0.685099 0.168113
vt 0.419431 0.901708
vt 0.475294 0.967171
vt 0.401430 0.955408
vt 0.576987 0.883330
vt 0.499020 0.808556
vt 0.578753 0.808556
vt 0.687458 0.407441
vt 0.762204 0.329446
vt 0.762204 0.410351
vt 0.104540 0.967356
vt 0.160403 0.901893
vt 0.160403 0.976688
vt 0.920080 0.692245
vt 0.842113 0.617470
vt 0.921846 0.617470
vt 0.842113 0.869724
vt 0.920080 0.794949
vt 0.921846 0.869724
vt 0.997439 0.617470
vt 0.941575 0.682933
vt 0.923575 0.629233
vt 0.481163 0.808086
vt 0.403196 0.733312
vt 0.477752 0.727253
vt 0.845393 0.324569
vt 0.923360 0.249795
vt 0.925127 0.324569
vt 0.203131 0.891387
vt 0.258995 0.956850
vt 0.203131 0.966182
vt 0.762204 0.324641
vt 0.687458 0.246646
vt 0.762204 0.243736
vt 0.754007 0.626607
vt 0.679261 0.704602
vt 0.679261 0.623697
vt 0.368516 0.556762
vt 0.288806 0.638826
vt 0.288806 0.554844
vt 0.300552 0.321959
vt 0.203131 0.261981
vt 0.285108 0.243736
vt 0.680813 0.329446
vt 0.601103 0.411511
vt 0.596867 0.331890
vt 0.399701 0.261981
vt 0.302280 0.321959
vt 0.317725 0.243736
vt 0.979438 0.835980
vt 0.923574 0.770517
vt 0.997439 0.782279
vt 0.088305 0.742829
vt 0.166272 0.817604
vt 0.086539 0.817604
vt 0.754007 0.540897
vt 0.679261 0.618891
vt 0.679261 0.537986
vt 0.935707 0.936915
vt 0.991570 0.871452
vt 0.991570 0.946247
vt 0.591858 0.627335
vt 0.499020 0.566179
vt 0.591858 0.452276
vt 0.494268 0.567437
vt 0.401429 0.628594
vt 0.401429 0.453535
vt 0.997439 0.693993
vt 0.941576 0.759457
vt 0.923575 0.705756
vt 0.080597 0.903242
vt 0.002630 0.828468
vt 0.077187 0.822409
vt 0.282864 0.808826
vt 0.204897 0.883600
vt 0.203131 0.808826
vt 0.999136 0.075659
vt 0.943273 0.010196
vt 0.999136 0.000864
vt 0.921846 0.533109
vt 0.843879 0.458335
vt 0.918436 0.452276
vt 0.754007 0.709240
vt 0.679261 0.787234
vt 0.679261 0.706330
vt 0.207367 0.722619
vt 0.287078 0.640554
vt 0.287078 0.724536
vt 0.403987 0.078465
vt 0.304423 0.022115
vt 0.385672 0.000864
vt 0.593586 0.621969
vt 0.673297 0.539904
vt 0.677533 0.619525
vt 0.302695 0.022116
vt 0.203131 0.078465
vt 0.221446 0.000864
vt 0.778653 0.936915
vt 0.834516 0.871452
vt 0.834516 0.946247
vt 0.838619 0.527050
vt 0.760652 0.452276
vt 0.840385 0.452276
vt 0.576987 0.732053
vt 0.499020 0.806827
vt 0.502430 0.725994
vt 0.340456 0.956850
vt 0.284593 0.891387
vt 0.358457 0.903149
vt 0.499020 0.259082
vt 0.595139 0.314942
vt 0.499020 0.450548
vt 0.599424 0.136470
vt 0.503305 0.192330
vt 0.503305 0.000864
vt 0.997439 0.609632
vt 0.941575 0.544169
vt 0.997439 0.534837
vt 0.840385 0.869724
vt 0.762418 0.794949
vt 0.836974 0.788891
vt 0.364326 0.808825
vt 0.286359 0.883600
vt 0.284593 0.808826
vt 0.593586 0.874601
vt 0.649450 0.940064
vt 0.593586 0.949396
vt 0.843665 0.410279
vt 0.765698 0.335505
vt 0.840254 0.329446
vt 0.762418 0.698471
vt 0.840385 0.623697
vt 0.836974 0.704530
vt 0.405666 0.643461
vt 0.485376 0.725525
vt 0.401430 0.723082
vt 0.207367 0.636908
vt 0.287078 0.554844
vt 0.287078 0.638826
vt 0.084811 0.738120
vt 0.005100 0.656055
vt 0.084811 0.654138
vt 0.601153 0.084846
vt 0.680863 0.002782
vt 0.685099 0.082402
vt 0.979438 0.461608
vt 0.923574 0.527071
vt 0.923574 0.452276
vt 0.286359 0.732323
vt 0.364326 0.807097
vt 0.284593 0.807097
vt 0.479397 0.815873
vt 0.401429 0.890647
vt 0.404840 0.809815
vt 0.018865 0.914302
vt 0.074728 0.979765
vt 0.000864 0.968003
vt 0.920080 0.781104
vt 0.842113 0.706330
vt 0.921846 0.706330
vt 0.847951 0.000864
vt 0.769984 0.075638
vt 0.768218 0.000864
vt 0.499020 0.891117
vt 0.554883 0.956580
vt 0.499020 0.965912
vt 0.840385 0.787163
vt 0.762418 0.712388
vt 0.836974 0.706330
vt 0.166201 0.654138
vt 0.091455 0.732132
vt 0.086539 0.657499
vt 0.686827 0.240925
vt 0.742691 0.175462
vt 0.760692 0.229163
vt 0.673249 0.790312
vt 0.598503 0.712317
vt 0.673249 0.709407
vt 0.920080 0.540968
vt 0.842113 0.615742
vt 0.845524 0.534909
vt 0.673297 0.534341
vt 0.593586 0.452276
vt 0.677533 0.454720
vt 0.200305 0.323730
vt 0.101998 0.265215
vt 0.183692 0.245746
vt 0.680813 0.327718
vt 0.601103 0.245654
vt 0.680813 0.243736
vt 0.099171 0.265215
vt 0.000864 0.323730
vt 0.017477 0.245746
vt 0.969468 0.231593
vt 0.913605 0.166130
vt 0.987469 0.177892
vt 0.002630 0.745907
vt 0.080597 0.820681
vt 0.000864 0.820681
vt 0.281098 0.732323
vt 0.203131 0.807097
vt 0.206542 0.726264
vt 0.867680 0.066327
vt 0.923543 0.000864
vt 0.923543 0.075659
vt 0.196373 0.639297
vt 0.101998 0.580540
vt 0.196373 0.466980
vt 0.000864 0.538850
vt 0.095240 0.480093
vt 0.095240 0.652410
vt 0.915977 0.871452
vt 0.860114 0.936915
vt 0.842113 0.883214
vt 0.679190 0.788963
vt 0.757157 0.863737
vt 0.682601 0.869796
vt 0.686827 0.081769
vt 0.761573 0.003774
vt 0.766490 0.078408
vt 0.849679 0.158220
vt 0.905542 0.092757
vt 0.923543 0.146458
vt 0.847951 0.164258
vt 0.769984 0.089484
vt 0.844540 0.083425
vt 0.841899 0.249795
vt 0.763932 0.324569
vt 0.767342 0.243736
vt 0.597823 0.705761
vt 0.677533 0.623697
vt 0.677533 0.707679
vt 0.100270 0.078516
vt 0.000864 0.021887
vt 0.082172 0.000864
vt 0.499020 0.724266
vt 0.578730 0.642202
vt 0.582966 0.721823
vt 0.201403 0.021887
vt 0.101998 0.078516
vt 0.120095 0.000864
vt 0.697191 0.936987
vt 0.753055 0.871524
vt 0.753055 0.946319
vt 0.838619 0.609683
vt 0.760652 0.534909
vt 0.840385 0.534909
vt 0.684178 0.530271
vt 0.758923 0.452276
vt 0.758923 0.533181
vt 0.893876 0.231593
vt 0.838012 0.166130
vt 0.911877 0.177892
vt 0.401429 0.258747
vt 0.497292 0.315046
vt 0.401430 0.451807
vt 0.405715 0.072174
vt 0.501577 0.015875
vt 0.501577 0.208935
vt 0.925272 0.152182
vt 0.981135 0.086719
vt 0.999136 0.140420
vt 0.925127 0.407130
vt 0.847159 0.332356
vt 0.921716 0.326297
vt 0.686827 0.164402
vt 0.761573 0.086407
vt 0.766490 0.161041
vt 0.762420 0.166130
vt 0.818283 0.231593
vt 0.762420 0.240925
vt 0.673320 0.872873
vt 0.595353 0.798098
vt 0.669909 0.792040
vt 0.088305 0.894106
vt 0.166272 0.819332
vt 0.162861 0.900165
vt 0.372752 0.550672
vt 0.288806 0.642998
vt 0.203131 0.469134
vt 0.601153 0.086574
vt 0.475294 0.892376
vt 0.502430 0.889389
vt 0.682541 0.332807
vt 0.086539 0.913655
vt 0.845524 0.698303
vt 0.845524 0.788891
vt 0.997439 0.692265
vt 0.401430 0.808086
vt 0.848804 0.243736
vt 0.276996 0.903149
vt 0.682541 0.321280
vt 0.758923 0.701240
vt 0.372752 0.636383
vt 0.203131 0.467406
vt 0.680813 0.413428
vt 0.399701 0.467406
vt 0.923574 0.845312
vt 0.162861 0.736771
vt 0.758923 0.615530
vt 0.917706 0.883214
vt 0.517910 0.638556
vt 0.475378 0.639815
vt 0.997439 0.768789
vt 0.000864 0.903242
vt 0.279454 0.889659
vt 0.925272 0.063897
vt 0.842113 0.533109
vt 0.758923 0.783873
vt 0.203131 0.642998
vt 0.304423 0.242008
vt 0.593586 0.537986
vt 0.302695 0.242008
vt 0.760652 0.883214
vt 0.764062 0.533109
vt 0.578753 0.806827
vt 0.284593 0.966182
vt 0.572223 0.243736
vt 0.576509 0.207676
vt 0.923574 0.597870
vt 0.760652 0.869724
vt 0.360915 0.889659
vt 0.667451 0.886363
vt 0.763932 0.410279
vt 0.760652 0.623697
vt 0.485376 0.641543
vt 0.203131 0.557288
vt 0.000864 0.735676
vt 0.601153 0.000864
vt 0.997439 0.515309
vt 0.360915 0.726264
vt 0.481163 0.890647
vt 0.074728 0.904970
vt 0.845524 0.787163
vt 0.844540 0.081697
vt 0.572884 0.902879
vt 0.760652 0.787163
vt 0.166201 0.735043
vt 0.686827 0.166130
vt 0.593586 0.786950
vt 0.921846 0.615742
vt 0.593586 0.536258
vt 0.101998 0.465252
vt 0.596867 0.325274
vt 0.099171 0.465252
vt 0.913605 0.240925
vt 0.077187 0.739848
vt 0.282864 0.807097
vt 0.849679 0.012626
vt 0.122736 0.652409
vt 0.021603 0.466980
vt 0.915977 0.946247
vt 0.758924 0.788963
vt 0.686827 0.000864
vt 0.849679 0.083425
vt 0.768218 0.164258
vt 0.843665 0.324569
vt 0.593586 0.626140
vt 0.000864 0.244018
vt 0.499020 0.640284
vt 0.201403 0.244018
vt 0.679190 0.883286
vt 0.764062 0.615742
vt 0.679261 0.455637
vt 0.838012 0.240925
vt 0.474703 0.243736
vt 0.428304 0.000864
vt 0.925272 0.077387
vt 0.845393 0.407130
vt 0.686827 0.083497
vt 0.836284 0.177892
vt 0.593586 0.872873
vt 0.086539 0.819332
s 0
usemtl Material
f 45/1/1 49/2/1 48/3/1
f 47/4/2 49/5/2 46/6/2
f 49/7/3 51/8/3 48/9/3
f 49/10/4 53/11/4 52/12/4
f 1/13/5 45/14/5 30/15/5
f 41/16/6 46/17/6 45/18/6
f 39/19/7 46/20/7 40/21/7
f 5/22/8 47/23/8 39/24/8
f 38/25/9 50/26/9 47/27/9
f 50/28/10 36/29/10 53/30/10
f 53/31/11 7/32/11 29/33/11
f 52/34/12 29/35/12 28/36/12
f 52/37/13 27/38/13 51/39/13
f 51/40/14 3/41/14 32/42/14
f 48/43/15 32/44/15 31/45/15
f 30/46/16 48/47/16 31/48/16
f 54/49/17 58/50/17 57/51/17
f 56/52/18 58/53/18 55/54/18
f 58/55/19 60/56/19 57/57/19
f 58/58/20 62/59/20 61/60/20
f 4/61/21 54/62/21 35/63/21
f 23/64/22 55/65/22 54/66/22
f 21/67/23 55/68/23 22/69/23
f 3/70/24 56/71/24 21/72/24
f 56/73/25 28/74/25 59/75/25
f 28/76/26 62/77/26 59/78/26
f 62/79/27 7/80/27 20/81/27
f 61/82/28 20/83/28 19/84/28
f 61/85/29 18/86/29 60/87/29
f 60/88/30 8/89/30 33/90/30
f 57/91/31 33/92/31 34/93/31
f 35/94/32 57/95/32 34/96/32
f 63/97/33 67/98/33 66/99/33
f 65/100/34 67/101/34 64/102/34
f 67/103/35 69/104/35 66/105/35
f 67/106/36 71/107/36 70/108/36
f 8/109/37 63/110/37 11/111/37
f 18/112/38 64/113/38 63/114/38
f 20/115/39 64/116/39 19/117/39
f 7/118/40 65/119/40 20/120/40
f 65/121/41 37/122/41 68/123/41
f 37/124/42 71/125/42 68/126/42
f 71/127/43 5/128/43 24/129/43
f 70/130/44 24/131/44 25/132/44
f 70/133/45 26/134/45 69/135/45
f 69/136/46 6/137/46 9/138/46
f 66/139/47 9/140/47 10/141/47
f 11/142/48 66/143/48 10/144/48
f 72/145/49 76/146/49 75/147/49
f 74/148/50 76/149/50 73/150/50
f 76/151/51 78/152/51 75/153/51
f 76/154/52 80/155/52 79/156/52
f 6/157/53 72/158/53 9/159/53
f 14/160/54 73/161/54 72/162/54
f 12/163/55 73/164/55 13/165/55
f 2/166/56 74/167/56 12/168/56
f 44/169/57 77/170/57 74/171/57
f 77/172/58 42/173/58 80/174/58
f 80/175/59 4/176/59 35/177/59
f 79/178/60 35/179/60 34/180/60
f 79/181/61 33/182/61 78/183/61
f 78/184/62 8/185/62 11/186/62
f 75/187/63 11/188/63 10/189/63
f 9/190/64 75/191/64 10/192/64
f 81/193/65 85/194/65 84/195/65
f 83/196/66 85/197/66 82/198/66
f 85/199/67 87/200/67 84/201/67
f 85/202/68 89/203/68 88/204/68
f 2/205/69 81/206/69 44/207/69
f 17/208/70 82/209/70 81/210/70
f 15/211/71 82/212/71 16/213/71
f 1/214/72 83/215/72 15/216/72
f 83/217/73 31/218/73 86/219/73
f 31/220/74 89/221/74 86/222/74
f 89/223/75 3/224/75 21/225/75
f 88/226/76 21/227/76 22/228/76
f 88/229/77 23/230/77 87/231/77
f 87/232/78 4/233/78 42/234/78
f 84/235/79 42/236/79 43/237/79
f 44/238/80 84/239/80 43/240/80
f 90/241/81 94/242/81 93/243/81
f 92/244/82 94/245/82 91/246/82
f 94/247/83 96/248/83 93/249/83
f 94/250/84 98/251/84 97/252/84
f 6/253/85 90/254/85 14/255/85
f 26/256/86 91/257/86 90/258/86
f 24/259/87 91/260/87 25/261/87
f 5/262/88 92/263/88 24/264/88
f 92/265/89 40/266/89 95/267/89
f 40/268/90 98/269/90 95/270/90
f 98/271/91 1/272/91 15/273/91
f 97/274/92 15/275/92 16/276/92
f 97/277/93 17/278/93 96/279/93
f 96/280/94 2/281/94 12/282/94
f 93/283/95 12/284/95 13/285/95
f 14/286/96 93/287/96 13/288/96
f 45/1/97 46/289/97 49/2/97
f 47/4/98 50/290/98 49/5/98
f 49/7/99 52/291/99 51/8/99
f 49/10/100 50/292/100 53/11/100
f 1/13/101 41/293/101 45/14/101
f 41/16/102 40/294/102 46/17/102
f 39/19/103 47/295/103 46/20/103
f 5/22/104 38/296/104 47/23/104
f 38/25/105 37/297/105 50/26/105
f 50/28/106 37/298/106 36/29/106
f 53/31/107 36/299/107 7/32/107
f 52/34/108 53/300/108 29/35/108
f 52/37/109 28/301/109 27/38/109
f 51/40/110 27/302/110 3/41/110
f 48/43/111 51/303/111 32/44/111
f 30/46/112 45/304/112 48/47/112
f 54/49/113 55/305/113 58/50/113
f 56/52/114 59/306/114 58/53/114
f 58/55/115 61/307/115 60/56/115
f 58/58/116 59/308/116 62/59/116
f 4/61/117 23/309/117 54/62/117
f 23/64/118 22/310/118 55/65/118
f 21/67/119 56/311/119 55/68/119
f 3/70/120 27/312/120 56/71/120
f 56/73/121 27/313/121 28/74/121
f 28/76/122 29/314/122 62/77/122
f 62/79/123 29/315/123 7/80/123
f 61/82/124 62/316/124 20/83/124
f 61/85/125 19/317/125 18/86/125
f 60/88/126 18/318/126 8/89/126
f 57/91/127 60/319/127 33/92/127
f 35/94/128 54/320/128 57/95/128
f 63/97/129 64/321/129 67/98/129
f 65/100/130 68/322/130 67/101/130
f 67/103/131 70/323/131 69/104/131
f 67/106/132 68/324/132 71/107/132
f 8/109/133 18/325/133 63/110/133
f 18/112/134 19/326/134 64/113/134
f 20/115/135 65/327/135 64/116/135
f 7/118/136 36/328/136 65/119/136
f 65/121/137 36/329/137 37/122/137
f 37/124/138 38/330/138 71/125/138
f 71/127/139 38/331/139 5/128/139
f 70/130/140 71/332/140 24/131/140
f 70/133/141 25/333/141 26/134/141
f 69/136/142 26/334/142 6/137/142
f 66/139/143 69/335/143 9/140/143
f 11/142/144 63/336/144 66/143/144
f 72/145/145 73/337/145 76/146/145
f 74/148/146 77/338/146 76/149/146
f 76/151/147 79/339/147 78/152/147
f 76/154/148 77/340/148 80/155/148
f 6/157/149 14/341/149 72/158/149
f 14/160/150 13/342/150 73/161/150
f 12/163/151 74/343/151 73/164/151
f 2/166/152 44/344/152 74/167/152
f 44/169/153 43/345/153 77/170/153
f 77/172/154 43/346/154 42/173/154
f 80/175/155 42/347/155 4/176/155
f 79/178/156 80/348/156 35/179/156
f 79/181/157 34/349/157 33/182/157
f 78/184/158 33/350/158 8/185/158
f 75/187/159 78/351/159 11/188/159
f 9/190/160 72/352/160 75/191/160
f 81/193/161 82/353/161 85/194/161
f 83/196/162 86/354/162 85/197/162
f 85/199/163 88/355/163 87/200/163
f 85/202/164 86/356/164 89/203/164
f 2/205/165 17/357/165 81/206/165
f 17/208/166 16/358/166 82/209/166
f 15/211/167 83/359/167 82/212/167
f 1/214/168 30/360/168 83/215/168
f 83/217/169 30/361/169 31/218/169
f 31/220/170 32/362/170 89/221/170
f 89/223/171 32/363/171 3/224/171
f 88/226/172 89/364/172 21/227/172
f 88/229/173 22/365/173 23/230/173
f 87/232/174 23/366/174 4/233/174
f 84/235/175 87/367/175 42/236/175
f 44/238/176 81/368/176 84/239/176
f 90/241/177 91/369/177 94/242/177
f 92/244/178 95/370/178 94/245/178
f 94/247/179 97/371/179 96/248/179
f 94/250/180 95/372/180 98/251/180
f 6/253/181 26/373/181 90/254/181
f 26/256/182 25/374/182 91/257/182
f 24/259/183 92/375/183 91/260/183
f 5/262/184 39/376/184 92/263/184
f 92/265/185 39/377/185 40/266/185
f 40/268/186 41/378/186 98/269/186
f 98/271/187 41/379/187 1/272/187
f 97/274/188 98/380/188 15/275/188
f 97/277/189 16/381/189 17/278/189
f 96/280/190 17/382/190 2/281/190
f 93/283/191 96/383/191 12/284/191
f 14/286/192 90/384/192 93/287/192
