# Blender 4.4.1
# www.blender.org
mtllib enemyBody.mtl
o Cube
v 0.027146 0.500000 -0.300978
v 0.500000 -0.500000 -0.300978
v 0.015651 -0.029238 0.300978
v 0.126363 -0.263374 0.300978
v -0.500000 -0.500000 -0.300978
v -0.107773 -0.263374 0.300978
v 0.027146 0.500000 0.300978
v 0.500000 -0.500000 0.300978
v -0.500000 -0.500000 0.300978
v 0.024762 0.390234 0.300978
v 0.422506 -0.450923 0.300978
v -0.418650 -0.450923 0.300978
v 0.022668 0.293843 0.300978
v 0.354455 -0.407826 0.300978
v -0.347214 -0.407826 0.300978
v 0.019482 0.147152 0.300978
v 0.250893 -0.342239 0.300978
v -0.238498 -0.342239 0.300978
v 0.015651 -0.029238 0.400611
v 0.126363 -0.263374 0.400611
v -0.107773 -0.263374 0.400611
v 0.204448 -0.304430 0.397440
v -0.190845 -0.305266 0.396653
v 0.014983 0.014127 0.400020
v 0.006640 -0.178972 0.699022
v -0.196678 -0.337932 0.527654
v 0.198615 -0.337097 0.528441
v 0.009150 -0.018539 0.531022
vn -0.8846 0.4663 -0.0000
vn -0.0000 -1.0000 -0.0000
vn 0.9040 0.4275 -0.0000
vn -0.0000 -0.0000 -1.0000
vn -0.0000 -0.0000 1.0000
vn -0.0025 0.9703 0.2418
vn -0.8371 0.5384 0.0970
vn -0.0000 -0.9623 0.2722
vn -0.0002 0.7333 -0.6799
vn -0.7709 -0.4549 -0.4459
vn -0.7536 0.4809 0.4480
vn 0.8662 -0.4566 -0.2030
vn -0.8485 -0.5033 -0.1633
vn 0.8787 0.4155 0.2350
vt 0.458603 0.058287
vt 0.354750 0.123232
vt 0.354750 0.058287
vt 0.726607 0.987841
vt 0.525490 0.470174
vt 0.855151 0.000614
vt 0.522926 0.473421
vt 0.527079 0.474235
vt 0.000459 0.367605
vt 0.634586 0.965172
vt 0.361626 0.139752
vt 0.001168 0.159009
vt 0.031575 0.139752
vt 0.780635 0.907651
vt 0.888761 0.077238
vt 0.553755 0.945288
vt 0.023539 0.443320
vt 0.333596 0.122841
vt 0.058276 0.122841
vt 0.828080 0.837232
vt 0.918275 0.144526
vt 0.430699 0.914947
vt 0.043773 0.509836
vt 0.290939 0.097106
vt 0.098912 0.097107
vt 0.292824 0.027342
vt 0.552555 0.001607
vt 0.509897 0.027342
vt 0.282635 0.878464
vt 0.074701 0.611096
vt 0.239645 0.066161
vt 0.147775 0.066161
vt 0.000426 0.103356
vt 0.000426 0.001733
vt 0.083480 0.064084
vt 0.239645 0.001217
vt 0.018518 0.842368
vt 0.111889 0.732965
vt 0.987841 0.441203
vt 0.901486 0.288131
vt 0.987841 0.286097
vt 0.020135 0.162119
vt 0.087948 0.310067
vt 0.001569 0.310067
vt 0.877454 0.770094
vt 0.991816 0.991816
vt 0.859587 0.919934
vt 0.872142 0.512029
vt 0.999767 0.437201
vt 0.999767 0.592307
vt 0.955527 0.567073
vt 0.995791 0.686800
vt 0.851116 0.671885
vt 0.208699 0.272983
vt 0.106514 0.162119
vt 0.728149 0.991816
vt 0.851116 0.758265
vt 0.995791 0.773179
vt 0.458603 0.123232
vt 0.393546 0.159009
vt 0.241324 0.001607
vt 0.147775 0.001217
vt 0.189667 0.987841
vt 0.901486 0.443237
s 0
usemtl Material
f 6/1/1 19/2/1 3/3/1
f 7/4/1 5/5/1 9/6/1
f 2/7/2 9/6/2 5/5/2
f 1/8/3 8/9/3 2/7/3
f 5/5/4 1/8/4 2/7/4
f 10/10/5 8/9/5 7/4/5
f 12/11/5 8/12/5 11/13/5
f 10/14/5 9/6/5 12/15/5
f 13/16/5 11/17/5 10/10/5
f 15/18/5 11/13/5 14/19/5
f 13/20/5 12/15/5 15/21/5
f 16/22/5 14/23/5 13/16/5
f 18/24/5 14/19/5 17/25/5
f 16/26/5 15/27/5 18/28/5
f 3/29/5 17/30/5 16/22/5
f 6/31/5 17/25/5 4/32/5
f 3/3/5 18/28/5 6/1/5
f 20/33/5 19/34/5 21/35/5
f 4/32/2 21/36/2 6/31/2
f 3/29/3 20/37/3 4/38/3
f 23/39/6 27/40/6 22/41/6
f 23/42/7 28/43/7 24/44/7
f 21/45/8 20/46/8 25/47/8
f 25/48/9 27/49/9 26/50/9
f 25/51/10 28/52/10 27/53/10
f 25/54/11 28/43/11 26/55/11
f 21/45/12 19/56/12 25/47/12
f 22/57/13 28/52/13 24/58/13
f 20/46/14 19/56/14 25/47/14
f 6/1/1 21/59/1 19/2/1
f 7/4/1 1/8/1 5/5/1
f 2/7/2 8/9/2 9/6/2
f 1/8/3 7/4/3 8/9/3
f 10/10/5 11/17/5 8/9/5
f 12/11/5 9/60/5 8/12/5
f 10/14/5 7/4/5 9/6/5
f 13/16/5 14/23/5 11/17/5
f 15/18/5 12/11/5 11/13/5
f 13/20/5 10/14/5 12/15/5
f 16/22/5 17/30/5 14/23/5
f 18/24/5 15/18/5 14/19/5
f 16/26/5 13/61/5 15/27/5
f 3/29/5 4/38/5 17/30/5
f 6/31/5 18/24/5 17/25/5
f 3/3/5 16/26/5 18/28/5
f 4/32/2 20/62/2 21/36/2
f 3/29/3 19/63/3 20/37/3
f 23/39/6 26/64/6 27/40/6
f 23/42/7 26/55/7 28/43/7
f 22/57/13 27/53/13 28/52/13
