# Blender 4.4.1
# www.blender.org
mtllib candy.mtl
o Cube
v 0.123666 1.305464 -0.500000
v 0.123666 0.305464 -0.500000
v 0.123666 1.305464 0.500000
v 0.123666 0.305464 0.500000
v -0.123666 1.305464 -0.500000
v -0.123666 0.305464 -0.500000
v -0.123666 1.305464 0.500000
v -0.123666 0.305464 0.500000
v -0.150765 0.195896 -0.000000
v 0.000000 0.195896 -0.609568
v 0.150765 0.805464 -0.609568
v -0.150765 0.805464 0.609568
v 0.150765 0.805464 0.609568
v -0.150765 0.805464 -0.609568
v -0.000000 1.415032 0.609568
v 0.150765 1.415032 0.000000
v -0.000000 0.195896 0.609568
v -0.150765 1.415032 -0.000000
v 0.000000 1.415032 -0.609568
v 0.150765 0.195896 0.000000
v -0.000000 1.644970 -0.000000
v 0.000000 0.805464 0.839506
v -0.207636 0.805464 -0.000000
v 0.000000 -0.034042 0.000000
v 0.207636 0.805464 -0.000000
v 0.000000 0.805464 -0.839506
v -0.039498 -1.417875 0.049648
v -0.039498 0.195229 0.049648
v -0.039498 -1.417875 -0.049648
v -0.039498 0.195229 -0.049648
v 0.039498 -1.417875 0.049648
v 0.039498 0.195229 0.049648
v 0.039498 -1.417875 -0.049648
v 0.039498 0.195229 -0.049648
vn 0.7926 0.5774 -0.1960
vn -0.7926 0.5774 -0.1960
vn -0.7926 0.5774 0.1960
vn 0.7926 0.5774 0.1960
vn 0.7926 -0.1960 0.5774
vn 0.7926 0.1960 0.5774
vn -0.7926 0.1960 0.5774
vn -0.7926 -0.1960 0.5774
vn -0.9930 -0.0834 0.0834
vn -0.9930 0.0834 0.0834
vn -0.9930 0.0834 -0.0834
vn -0.9930 -0.0834 -0.0834
vn -0.7926 -0.5774 -0.1960
vn 0.7926 -0.5774 -0.1960
vn 0.7926 -0.5774 0.1960
vn -0.7926 -0.5774 0.1960
vn 0.9930 -0.0834 -0.0834
vn 0.9930 0.0834 -0.0834
vn 0.9930 0.0834 0.0834
vn 0.9930 -0.0834 0.0834
vn -0.7926 -0.1960 -0.5774
vn -0.7926 0.1960 -0.5774
vn 0.7926 0.1960 -0.5774
vn 0.7926 -0.1960 -0.5774
vn -1.0000 -0.0000 -0.0000
vn -0.0000 -0.0000 -1.0000
vn 1.0000 -0.0000 -0.0000
vn -0.0000 -0.0000 1.0000
vn -0.0000 -1.0000 -0.0000
vn -0.0000 1.0000 -0.0000
vt 0.362555 0.291212
vt 0.273150 0.233637
vt 0.354706 0.145900
vt 0.430037 0.220997
vt 0.209209 0.148669
vt 0.269871 0.061330
vt 0.357020 0.000395
vt 0.442187 0.064071
vt 0.500041 0.153295
vt 0.637815 0.290925
vt 0.570186 0.220851
vt 0.645361 0.145598
vt 0.727099 0.233164
vt 0.557709 0.063950
vt 0.642743 0.000098
vt 0.730020 0.060851
vt 0.790863 0.148063
vt 0.209827 0.729726
vt 0.122599 0.668904
vt 0.207374 0.584041
vt 0.294958 0.666002
vt 0.061686 0.581740
vt 0.125322 0.496543
vt 0.214427 0.438505
vt 0.283235 0.508101
vt 0.352902 0.576836
vt 0.642744 0.581753
vt 0.557709 0.517900
vt 0.645361 0.436253
vt 0.730020 0.521000
vt 0.500041 0.428555
vt 0.570186 0.361000
vt 0.727099 0.348686
vt 0.790863 0.433787
vt 0.430442 0.360740
vt 0.500185 0.290925
vt 0.357251 0.434008
vt 0.440608 0.516723
vt 0.274449 0.350737
vt 0.028524 0.907955
vt 0.030094 0.872212
vt 0.033065 0.871895
vt 0.031495 0.907638
vt 0.048102 0.780772
vt 0.061491 0.999902
vt 0.061491 0.000922
vt 0.000098 0.779948
vt 0.013486 0.000098
vt 0.013486 0.999078
s 0
usemtl マテリアル
f 1/1/1 19/2/1 21/3/1 16/4/1
f 19/2/2 5/5/2 18/6/2 21/3/2
f 21/3/3 18/6/3 7/7/3 15/8/3
f 16/4/4 21/3/4 15/8/4 3/9/4
f 4/10/5 13/11/5 22/12/5 17/13/5
f 13/11/6 3/9/6 15/14/6 22/12/6
f 22/12/7 15/14/7 7/15/7 12/16/7
f 17/13/8 22/12/8 12/16/8 8/17/8
f 8/18/9 12/19/9 23/20/9 9/21/9
f 12/19/10 7/22/10 18/23/10 23/20/10
f 23/20/11 18/23/11 5/24/11 14/25/11
f 9/21/12 23/20/12 14/25/12 6/26/12
f 6/27/13 10/28/13 24/29/13 9/30/13
f 10/28/14 2/31/14 20/32/14 24/29/14
f 24/29/15 20/32/15 4/10/15 17/33/15
f 9/30/16 24/29/16 17/33/16 8/34/16
f 2/31/17 11/35/17 25/36/17 20/32/17
f 11/35/18 1/1/18 16/4/18 25/36/18
f 25/36/19 16/4/19 3/9/19 13/11/19
f 20/32/20 25/36/20 13/11/20 4/10/20
f 6/26/21 14/25/21 26/37/21 10/38/21
f 14/25/22 5/24/22 19/39/22 26/37/22
f 26/37/23 19/39/23 1/1/23 11/35/23
f 10/38/24 26/37/24 11/35/24 2/31/24
usemtl 
f 27/40/25 28/41/25 30/42/25 29/43/25
f 29/43/26 30/42/26 34/44/26 33/45/26
f 33/46/27 34/44/27 32/47/27 31/48/27
f 31/49/28 32/47/28 28/41/28 27/40/28
f 29/43/29 33/45/29 31/49/29 27/40/29
f 34/44/30 30/42/30 28/41/30 32/47/30
