# Blender 4.4.1
# www.blender.org
mtllib doa.mtl
o Cube
v -0.420227 0.500000 -0.500000
v -0.420227 -0.500000 -0.500000
v -0.420227 0.500000 0.500000
v -0.420227 -0.500000 0.500000
v -0.500000 0.500000 -0.500000
v -0.500000 -0.500000 -0.500000
v -0.500000 0.500000 0.500000
v -0.500000 -0.500000 0.500000
v -0.500000 -0.500000 0.000000
v -0.420227 0.500000 0.000000
v -0.500000 0.500000 0.000000
v -0.420227 -0.500000 0.000000
v -0.500000 -0.500000 0.250000
v -0.420227 0.500000 0.250000
v -0.500000 0.500000 0.250000
v -0.420227 -0.500000 0.250000
v -0.500000 0.500000 -0.250000
v -0.420227 -0.500000 -0.250000
v -0.500000 -0.500000 -0.250000
v -0.420227 0.500000 -0.250000
v -0.500000 0.500000 -0.375000
v -0.420227 -0.500000 -0.375000
v -0.500000 -0.500000 -0.375000
v -0.420227 0.500000 -0.375000
v -0.500000 -0.500000 0.375000
v -0.420227 0.500000 0.375000
v -0.500000 0.500000 0.375000
v -0.420227 -0.500000 0.375000
v -0.500000 -0.500000 0.437500
v -0.420227 0.500000 0.437500
v -0.500000 0.500000 0.437500
v -0.420227 -0.500000 0.437500
v -0.500000 0.500000 -0.437641
v -0.420227 -0.500000 -0.437641
v -0.500000 -0.500000 -0.437641
v -0.420227 0.500000 -0.437641
v -0.369333 0.500000 -0.500000
v -0.369333 -0.500000 -0.500000
v -0.369333 0.500000 0.500000
v -0.369333 -0.500000 0.500000
v -0.369333 0.500000 0.437500
v -0.369333 -0.500000 -0.437641
v -0.369333 -0.500000 0.437500
v -0.369333 0.500000 -0.437641
v -0.420227 1.002234 -0.000071
v -0.420227 1.003308 0.500000
v -0.369333 1.002234 -0.000071
v -0.369333 1.003308 0.500000
v -0.420227 1.001161 -0.500000
v -0.420227 1.070710 -0.000218
v -0.369333 1.001161 -0.500000
v -0.420227 1.071784 0.499853
v -0.369333 0.733814 0.437500
v -0.369333 0.733814 0.500000
v -0.420227 0.733814 0.500000
v -0.420227 0.733814 0.437500
v -0.369333 0.616907 0.500000
v -0.420227 0.616907 0.500000
v -0.420227 0.616907 0.437500
v -0.369333 0.616907 0.437500
v -0.420227 0.729991 -0.500000
v -0.369333 0.729991 -0.500000
v -0.420227 0.729991 -0.437641
v -0.369333 0.729991 -0.437641
v -0.369333 0.614995 -0.500000
v -0.369333 0.614995 -0.437641
v -0.420227 0.614995 -0.500000
v -0.420227 0.614995 -0.437641
v -0.369333 0.847971 0.318771
v -0.369333 0.847971 0.500000
v -0.420227 0.847971 0.500000
v -0.420227 0.847971 0.318771
v -0.420227 0.844924 -0.500000
v -0.420227 0.844924 -0.306843
v -0.369333 0.844924 -0.500000
v -0.369333 0.844924 -0.306843
v -0.369333 1.070710 -0.000218
v -0.369333 1.071784 0.499853
v -0.420227 1.069637 -0.500147
v -0.369333 1.069637 -0.500147
v -0.420227 0.975865 0.500000
v -0.500000 0.975865 0.500000
v -0.420227 0.975865 0.437500
v -0.500000 0.975865 -0.437641
v -0.500000 0.975865 -0.500000
v -0.420227 0.975865 -0.500000
v -0.420227 0.975865 -0.250000
v -0.420227 0.975865 0.000000
v -0.500000 0.975865 0.250000
v -0.500000 0.975865 0.000000
v -0.420227 0.975865 0.250000
v -0.500000 0.975865 0.375000
v -0.500000 0.975865 -0.250000
v -0.420227 0.975865 -0.375000
v -0.500000 0.975865 -0.375000
v -0.420227 0.975865 -0.437641
v -0.420227 0.975865 0.375000
v -0.500000 0.975865 0.437500
v -0.282876 0.500000 -0.500000
v -0.282876 -0.500000 -0.500000
v -0.282876 0.500000 0.500000
v -0.282876 -0.500000 0.500000
v -0.282876 0.500000 0.437500
v -0.282876 -0.500000 -0.437641
v -0.282876 -0.500000 0.437500
v -0.282876 0.500000 -0.437641
v -0.282876 1.002234 -0.000071
v -0.282876 1.003308 0.500000
v -0.282876 0.847971 0.318771
v -0.282876 0.616907 0.500000
v -0.282876 0.614995 -0.500000
v -0.282876 1.070710 -0.000218
v -0.282876 1.071784 0.499853
v -0.282876 0.614995 -0.437641
v -0.282876 0.616907 0.437500
v -0.282876 0.733814 0.437500
v -0.282876 0.847971 0.500000
v -0.282876 0.733814 0.500000
v -0.282876 0.844924 -0.500000
v -0.282876 0.729991 -0.500000
v -0.282876 0.844924 -0.306843
v -0.282876 0.729991 -0.437641
v -0.282876 1.001161 -0.500000
v -0.282876 1.069637 -0.500147
vn 1.0000 -0.0000 -0.0000
vn -0.0000 -0.0000 1.0000
vn -1.0000 -0.0000 -0.0000
vn -0.0000 -1.0000 -0.0000
vn -0.0000 -0.0000 -1.0000
vn -0.0000 1.0000 -0.0021
vn -0.0000 0.0021 1.0000
vn -0.0000 -0.9002 -0.4355
vn -0.0000 -0.8898 0.4563
vn -0.0000 -0.0021 -1.0000
vn -0.0000 -0.7208 -0.6931
vn -0.0000 -0.7512 0.6601
vn -0.0000 1.0000 -0.0000
vt 0.789758 0.426457
vt 0.804852 0.428544
vt 0.788920 0.543728
vt 0.773826 0.541640
vt 0.038661 0.018317
vt 0.038661 0.266767
vt 0.018841 0.266767
vt 0.018841 0.018317
vt 0.937520 0.307296
vt 0.937520 0.555746
vt 0.922027 0.555746
vt 0.922027 0.307296
vt 0.277648 0.211023
vt 0.277648 0.191203
vt 0.293176 0.191203
vt 0.293176 0.211023
vt 0.757344 0.791511
vt 0.528438 0.506460
vt 0.533156 0.505630
vt 0.759023 0.783680
vt 0.018953 0.885483
vt 0.267403 0.885483
vt 0.267403 0.905303
vt 0.018953 0.905303
vt 0.136923 0.018953
vt 0.136923 0.267403
vt 0.074811 0.267403
vt 0.074811 0.018953
vt 0.136923 0.305574
vt 0.136923 0.325394
vt 0.074811 0.325394
vt 0.074811 0.305574
vt 0.279912 0.665996
vt 0.528362 0.665996
vt 0.528362 0.728108
vt 0.279912 0.728108
vt 0.866153 0.018695
vt 0.885973 0.018695
vt 0.885973 0.136923
vt 0.866153 0.136923
vt 0.049937 0.598862
vt 0.049937 0.847312
vt 0.018880 0.847312
vt 0.018880 0.598862
vt 0.362066 0.764258
vt 0.610516 0.764258
vt 0.610516 0.826371
vt 0.362066 0.826371
vt 0.281001 0.380163
vt 0.281001 0.360343
vt 0.343113 0.360343
vt 0.343113 0.380163
vt 0.803183 0.950407
vt 0.803183 0.934879
vt 0.921411 0.934879
vt 0.921411 0.950407
vt 0.774596 0.424359
vt 0.758663 0.539542
vt 0.275007 0.438154
vt 0.275007 0.418334
vt 0.306063 0.418334
vt 0.306063 0.438154
vt 0.362066 0.864582
vt 0.610516 0.864582
vt 0.610516 0.895638
vt 0.362066 0.895638
vt 0.539638 0.018953
vt 0.539638 0.267403
vt 0.477525 0.267403
vt 0.477525 0.018953
vt 0.823240 0.184407
vt 0.808077 0.182309
vt 0.825911 0.165098
vt 0.810748 0.163000
vt 0.959077 0.864396
vt 0.974570 0.864396
vt 0.974570 0.982624
vt 0.959077 0.982624
vt 0.885973 0.302464
vt 0.885973 0.550914
vt 0.854916 0.550914
vt 0.854916 0.302464
vt 0.937520 0.018953
vt 0.937520 0.267403
vt 0.921992 0.267403
vt 0.921992 0.018953
vt 0.650410 0.866192
vt 0.898860 0.866192
vt 0.898860 0.897249
vt 0.650410 0.897249
vt 0.576198 0.196075
vt 0.596018 0.196075
vt 0.596018 0.227131
vt 0.576198 0.227131
vt 0.018695 0.956851
vt 0.018695 0.941322
vt 0.136923 0.941322
vt 0.136923 0.956851
vt 0.188470 0.064057
vt 0.188470 0.312507
vt 0.172942 0.312507
vt 0.172942 0.064057
vt 0.739437 0.805681
vt 0.512715 0.519171
vt 0.757523 0.828536
vt 0.775430 0.814366
vt 0.415602 0.156253
vt 0.384545 0.156253
vt 0.384545 0.038025
vt 0.415602 0.038025
vt 0.430115 0.413737
vt 0.443963 0.402888
vt 0.038661 0.438154
vt 0.018841 0.438154
vt 0.018841 0.422661
vt 0.038661 0.422661
vt 0.539921 0.496982
vt 0.776330 0.774473
vt 0.767504 0.774787
vt 0.538218 0.501453
vt 0.712000 0.257360
vt 0.712000 0.505810
vt 0.696437 0.505810
vt 0.696437 0.257360
vt 0.180416 0.452480
vt 0.180416 0.576688
vt 0.158936 0.576688
vt 0.158936 0.452480
vt 0.709618 0.635539
vt 0.691490 0.613725
vt 0.708011 0.599996
vt 0.726138 0.621810
vt 0.305685 0.931319
vt 0.554136 0.931319
vt 0.554136 0.943964
vt 0.305685 0.943964
vt 0.835559 0.186111
vt 0.802077 0.428161
vt 0.825328 0.169313
vt 0.837647 0.171017
vt 0.027277 0.515045
vt 0.017376 0.503128
vt 0.033897 0.489401
vt 0.043798 0.501318
vt 0.075554 0.373719
vt 0.075554 0.361075
vt 0.114371 0.361075
vt 0.114371 0.373719
vt 0.529423 0.495115
vt 0.529172 0.495722
vt 0.528121 0.494799
vt 0.527758 0.493664
vt 0.530437 0.497217
vt 0.530618 0.497098
vt 0.530495 0.496811
vt 0.529151 0.495326
vt 0.531061 0.497220
vt 0.530281 0.497015
vt 0.531016 0.497259
vt 0.530852 0.497400
vt 0.605568 0.030600
vt 0.608905 0.154643
vt 0.587486 0.154643
vt 0.590647 0.040470
vt 0.753479 0.507128
vt 0.793973 0.532471
vt 0.837647 0.605701
vt 0.732980 0.539882
vt 0.672927 0.591386
vt 0.689447 0.577657
vt 0.806921 0.529301
vt 0.828398 0.617010
vt 0.815450 0.620181
vt 0.532958 0.500917
vt 0.532798 0.500934
vt 0.531433 0.498224
vt 0.531341 0.498291
vt 0.533767 0.500166
vt 0.531611 0.498416
vt 0.533713 0.500329
vt 0.531649 0.498382
vt 0.308294 0.152598
vt 0.289731 0.130259
vt 0.306251 0.116530
vt 0.324815 0.138869
vt 0.204308 0.728118
vt 0.186050 0.706143
vt 0.202572 0.692416
vt 0.220830 0.714391
vt 0.786039 0.454689
vt 0.798268 0.456070
vt 0.796074 0.485004
vt 0.781972 0.486262
vt 0.663674 0.789321
vt 0.646661 0.789321
vt 0.646661 0.767841
vt 0.663674 0.767841
vt 0.770377 0.452390
vt 0.765442 0.481459
vt 0.108170 0.493348
vt 0.120814 0.493348
vt 0.120814 0.521918
vt 0.108170 0.521918
vt 0.762023 0.422409
vt 0.774487 0.424228
vt 0.757913 0.450571
vt 0.654363 0.569047
vt 0.495573 0.377963
vt 0.512093 0.364235
vt 0.670884 0.555318
vt 0.304950 0.849249
vt 0.250212 0.783367
vt 0.266734 0.769640
vt 0.321472 0.835522
vt 0.824563 0.773861
vt 0.745157 0.678306
vt 0.761677 0.664577
vt 0.841084 0.760133
vt 0.576930 0.356440
vt 0.589575 0.356440
vt 0.589575 0.384995
vt 0.576930 0.384995
vt 0.637900 0.315522
vt 0.637900 0.439765
vt 0.625255 0.439765
vt 0.625255 0.315522
vt 0.575103 0.154269
vt 0.578769 0.032635
vt 0.241629 0.130273
vt 0.241629 0.254516
vt 0.224616 0.254516
vt 0.224616 0.130273
vt 0.238407 0.405559
vt 0.238407 0.654009
vt 0.216927 0.654009
vt 0.216927 0.405559
vt 0.303913 0.056380
vt 0.303913 0.017563
vt 0.325394 0.017563
vt 0.325394 0.056380
vt 0.595058 0.018494
vt 0.430187 0.385306
vt 0.443962 0.374512
vt 0.457739 0.392095
vt 0.291638 0.522222
vt 0.277791 0.504548
vt 0.333182 0.461153
vt 0.347029 0.478828
vt 0.388573 0.417759
vt 0.402420 0.435434
vt 0.384545 0.018205
vt 0.415602 0.018205
vt 0.771155 0.560949
vt 0.755992 0.558851
vt 0.416269 0.396062
vt 0.430117 0.385214
vt 0.786249 0.563037
vt 0.429628 0.584263
vt 0.374237 0.627657
vt 0.875408 0.598604
vt 0.937520 0.598604
vt 0.937520 0.716832
vt 0.875408 0.716832
vt 0.038661 0.384995
vt 0.018841 0.384995
vt 0.485019 0.540869
vt 0.645319 0.963294
vt 0.645319 0.932238
vt 0.763547 0.932238
vt 0.763547 0.963294
vt 0.086087 0.716197
vt 0.148199 0.716197
vt 0.148199 0.834425
vt 0.086087 0.834425
vt 0.645505 0.018695
vt 0.676561 0.018695
vt 0.676561 0.136923
vt 0.645505 0.136923
vt 0.812848 0.826371
vt 0.812848 0.810808
vt 0.931077 0.810808
vt 0.931077 0.826371
vt 0.502169 0.352292
vt 0.693253 0.193502
vt 0.703177 0.205445
vt 0.224995 0.330628
vt 0.234896 0.342545
vt 0.769669 0.150190
vt 0.740891 0.115560
vt 0.719739 0.030139
vt 0.799351 0.125524
vt 0.321578 0.312775
vt 0.290909 0.275863
vt 0.320766 0.251057
vt 0.400347 0.346422
vt 0.725516 0.186881
vt 0.715591 0.174938
vt 0.737930 0.156374
vt 0.747855 0.168317
vt 0.256871 0.324286
vt 0.246971 0.312370
vt 0.268946 0.294112
vt 0.278847 0.306028
vt 0.333828 0.240157
vt 0.413409 0.335522
vt 0.732801 0.019238
vt 0.812412 0.114623
vt 0.485648 0.366021
vt 0.486904 0.584203
vt 0.515475 0.584203
vt 0.515475 0.605683
vt 0.486904 0.605683
vt 0.587964 0.670558
vt 0.587964 0.699113
vt 0.566483 0.699113
vt 0.566483 0.670558
vt 0.263577 0.098786
vt 0.280097 0.085058
vt 0.326858 0.174937
vt 0.343379 0.161208
vt 0.222567 0.750093
vt 0.239088 0.736366
vt 0.207333 0.031104
vt 0.223854 0.017376
vt 0.734284 0.665221
vt 0.750804 0.651492
vt 0.274918 0.615348
vt 0.274918 0.586778
vt 0.296398 0.586778
vt 0.296398 0.615348
s 0
usemtl Material
f 36/1/1 1/2/1 86/3/1 96/4/1
f 4/5/2 3/6/2 7/7/2 8/8/2
f 35/9/3 33/10/3 5/11/3 6/12/3
f 29/13/4 32/14/4 4/15/4 8/16/4
f 32/17/5 30/18/5 41/19/5 43/20/5
f 6/21/5 5/22/5 1/23/5 2/24/5
f 18/25/1 20/26/1 10/27/1 12/28/1
f 19/29/4 18/30/4 12/31/4 9/32/4
f 13/33/3 15/34/3 11/35/3 9/36/3
f 1/37/5 5/38/5 85/39/5 86/40/5
f 25/41/3 27/42/3 15/43/3 13/44/3
f 12/45/1 10/46/1 14/47/1 16/48/1
f 9/49/4 12/50/4 16/51/4 13/52/4
f 31/53/3 7/54/3 82/55/3 98/56/3
f 24/57/1 36/1/1 96/4/1 94/58/1
f 23/59/4 22/60/4 18/61/4 19/62/4
f 22/63/1 24/64/1 20/65/1 18/66/1
f 9/67/3 11/68/3 17/69/3 19/70/3
f 34/71/1 36/1/1 24/57/1 22/72/1
f 35/73/4 34/71/4 22/72/4 23/74/4
f 5/75/3 33/76/3 84/77/3 85/78/3
f 19/79/3 17/80/3 21/81/3 23/82/3
f 29/83/3 31/84/3 27/85/3 25/86/3
f 16/87/1 14/88/1 26/89/1 28/90/1
f 13/91/4 16/92/4 28/93/4 25/94/4
f 27/95/3 31/96/3 98/97/3 92/98/3
f 8/99/3 7/100/3 31/101/3 29/102/3
f 28/103/1 26/104/1 30/18/1 32/17/1
f 25/105/4 28/103/4 32/17/4 29/106/4
f 20/107/1 24/108/1 94/109/1 87/110/1
f 30/18/1 26/104/1 97/111/1 83/112/1
f 6/113/4 2/114/4 34/115/4 35/116/4
f 3/117/2 4/118/2 40/119/2 39/120/2
f 23/121/3 21/122/3 33/123/3 35/124/3
f 80/125/6 77/126/6 112/127/6 124/128/6
f 70/129/2 54/130/2 118/131/2 117/132/2
f 2/133/5 1/134/5 37/135/5 38/136/5
f 36/1/2 34/71/2 42/137/2 44/138/2
f 4/118/4 32/17/4 43/20/4 40/119/4
f 34/71/4 2/139/4 38/140/4 42/137/4
f 42/141/4 38/142/4 100/143/4 104/144/4
f 75/145/5 73/146/5 49/147/5 51/148/5
f 46/149/7 48/150/7 78/151/7 52/152/7
f 71/153/2 70/154/2 48/150/2 46/149/2
f 72/155/3 71/153/3 46/156/3 45/157/3
f 69/158/8 72/155/8 45/159/8 47/160/8
f 49/161/3 45/162/3 50/163/3 79/164/3
f 73/165/3 74/166/3 45/167/3 49/168/3
f 54/130/2 57/169/2 110/170/2 118/131/2
f 74/166/9 76/171/9 47/172/9 45/173/9
f 60/174/5 59/175/5 56/176/5 53/177/5
f 59/175/3 58/178/3 55/179/3 56/176/3
f 58/178/2 57/180/2 54/181/2 55/179/2
f 60/182/5 53/183/5 116/184/5 115/185/5
f 66/186/2 44/187/2 106/188/2 114/189/2
f 3/117/2 39/120/2 57/180/2 58/178/2
f 30/18/3 3/117/3 58/178/3 59/175/3
f 41/19/5 30/18/5 59/175/5 60/174/5
f 68/190/2 66/191/2 64/192/2 63/193/2
f 51/194/10 80/195/10 124/196/10 123/197/10
f 67/198/3 68/190/3 63/193/3 61/199/3
f 65/200/5 67/201/5 61/202/5 62/203/5
f 37/204/5 1/205/5 67/198/5 65/206/5
f 1/205/3 36/1/3 68/190/3 67/198/3
f 39/207/2 40/208/2 102/209/2 101/210/2
f 36/1/2 44/138/2 66/191/2 68/190/2
f 53/177/11 56/176/11 72/155/11 69/158/11
f 56/176/3 55/179/3 71/153/3 72/155/3
f 55/179/2 54/181/2 70/154/2 71/153/2
f 47/211/9 76/212/9 121/213/9 107/214/9
f 63/193/12 64/192/12 76/171/12 74/166/12
f 77/215/6 78/216/6 113/217/6 112/218/6
f 61/199/3 63/193/3 74/166/3 73/165/3
f 62/219/5 61/220/5 73/221/5 75/222/5
f 50/223/6 52/224/6 78/225/6 77/226/6
f 79/164/6 50/163/6 77/227/6 80/228/6
f 45/229/3 46/230/3 52/231/3 50/232/3
f 38/233/5 37/234/5 99/235/5 100/236/5
f 75/237/5 51/238/5 123/239/5 119/240/5
f 51/241/10 49/161/10 79/164/10 80/228/10
f 83/112/13 98/242/13 82/243/13 81/244/13
f 87/245/13 93/246/13 90/247/13 88/248/13
f 88/248/13 90/247/13 89/249/13 91/250/13
f 94/109/13 95/251/13 93/252/13 87/110/13
f 96/4/13 84/253/13 95/254/13 94/58/13
f 91/250/13 89/249/13 92/255/13 97/111/13
f 97/111/13 92/255/13 98/256/13 83/112/13
f 86/3/13 85/257/13 84/253/13 96/4/13
f 10/258/1 20/259/1 87/245/1 88/248/1
f 17/260/3 11/261/3 90/262/3 93/263/3
f 7/7/2 3/6/2 81/264/2 82/265/2
f 14/266/1 10/258/1 88/248/1 91/250/1
f 21/267/3 17/268/3 93/269/3 95/270/3
f 11/271/3 15/272/3 89/273/3 90/274/3
f 3/117/1 30/18/1 83/112/1 81/244/1
f 15/275/3 27/276/3 92/277/3 89/278/3
f 26/104/1 14/266/1 91/250/1 97/111/1
f 33/279/3 21/280/3 95/281/3 84/282/3
f 105/283/1 103/284/1 101/285/1 102/209/1
f 100/143/1 99/286/1 106/287/1 104/144/1
f 117/288/1 109/289/1 107/290/1 108/291/1
f 121/292/1 119/293/1 123/294/1 107/295/1
f 110/296/1 115/297/1 116/298/1 118/299/1
f 101/285/1 103/284/1 115/297/1 110/296/1
f 114/300/1 111/301/1 120/302/1 122/303/1
f 106/287/1 99/286/1 111/301/1 114/300/1
f 118/299/1 116/298/1 109/289/1 117/288/1
f 122/303/1 120/302/1 119/293/1 121/292/1
f 107/295/1 123/294/1 124/304/1 112/305/1
f 108/291/1 107/290/1 112/306/1 113/307/1
f 40/208/4 43/308/4 105/283/4 102/209/4
f 65/309/5 62/310/5 120/311/5 111/312/5
f 62/313/5 75/314/5 119/315/5 120/316/5
f 53/183/11 69/317/11 109/318/11 116/184/11
f 43/308/5 41/319/5 103/320/5 105/283/5
f 64/321/2 66/186/2 114/189/2 122/322/2
f 69/317/8 47/323/8 107/324/8 109/318/8
f 48/325/2 70/129/2 117/132/2 108/326/2
f 41/319/5 60/182/5 115/185/5 103/320/5
f 57/169/2 39/207/2 101/210/2 110/170/2
f 78/216/7 48/325/7 108/326/7 113/217/7
f 76/212/12 64/321/12 122/322/12 121/213/12
f 37/327/5 65/328/5 111/329/5 99/330/5
f 44/187/2 42/141/2 104/144/2 106/188/2
